<svg width="50" height="50" viewBox="0 0 50 50" fill="none" xmlns="http://www.w3.org/2000/svg">
<path d="M0 10C0 4.47715 4.47715 0 10 0H40C45.5228 0 50 4.47715 50 10V40C50 45.5228 45.5228 50 40 50H10C4.47715 50 0 45.5228 0 40V10Z" fill="#5F63F2"/>
<path d="M25.0091 43.2063C25.6718 43.2125 26.3293 43.0876 26.9439 42.8387C27.5586 42.5897 28.1184 42.2216 28.5914 41.7553C29.0644 41.2891 29.4413 40.7338 29.7007 40.1211C29.96 39.5085 30.0967 38.8506 30.1029 38.185H19.9154C19.9216 38.8506 20.0583 39.5085 20.3176 40.1211C20.5769 40.7338 20.9539 41.2891 21.4269 41.7553C21.8999 42.2216 22.4597 42.5897 23.0743 42.8387C23.689 43.0876 24.3464 43.2125 25.0091 43.2063V43.2063Z" fill="white"/>
<path d="M40.6639 34.678L36.9515 30.5552C36.3973 29.9404 36.0899 29.1409 36.0885 28.3115V22.4603C36.0889 19.8494 35.1846 17.3197 33.5307 15.3054C31.8768 13.2912 29.5765 11.9179 27.0246 11.4214V9.02438C27.0246 8.48748 26.8122 7.97257 26.4343 7.59293C26.0563 7.21328 25.5437 7 25.0092 7C24.4747 7 23.962 7.21328 23.5841 7.59293C23.2061 7.97257 22.9938 8.48748 22.9938 9.02438V11.4188C17.8369 12.3543 13.9298 16.8021 13.9298 22.1511V28.3115C13.9285 29.1409 13.621 29.9404 13.0668 30.5552L9.35704 34.678C9.17786 34.8694 9.05958 35.1102 9.0173 35.3695C8.97502 35.6288 9.01066 35.8949 9.11967 36.1337C9.22869 36.3726 9.40611 36.5734 9.62929 36.7104C9.85248 36.8475 10.1113 36.9146 10.3726 36.9032H39.6457C39.9043 36.9077 40.1585 36.8365 40.3774 36.6982C40.5963 36.5599 40.7704 36.3606 40.8783 36.1246C40.9863 35.8886 41.0236 35.6262 40.9855 35.3693C40.9474 35.1124 40.8357 34.8722 40.6639 34.678Z" fill="white"/>
</svg>
