<svg width="50" height="50" viewBox="0 0 50 50" fill="none" xmlns="http://www.w3.org/2000/svg">
<path d="M0 10C0 4.47715 4.47715 0 10 0H40C45.5228 0 50 4.47715 50 10V40C50 45.5228 45.5228 50 40 50H10C4.47715 50 0 45.5228 0 40V10Z" fill="white"/>
<path fill-rule="evenodd" clip-rule="evenodd" d="M30.0766 20.8807H40.272C40.4992 20.8786 40.7245 20.9219 40.9349 21.0079C41.1452 21.094 41.3362 21.2211 41.4969 21.3818C41.6576 21.5425 41.7846 21.7336 41.8705 21.9439C41.9565 22.1543 41.9997 22.3797 41.9976 22.6069V41.2714C41.9996 41.4986 41.9563 41.7239 41.8703 41.9341C41.7843 42.1444 41.6573 42.3355 41.4967 42.4961C41.336 42.6568 41.145 42.7838 40.9347 42.8698C40.7244 42.9558 40.4991 42.999 40.272 42.997H30.0766C29.1536 42.997 28.3907 42.2347 28.3907 41.2714V22.6069C28.3907 21.6436 29.1536 20.8807 30.0766 20.8807ZM30.7589 23.2892H39.5897V40.5891H30.7589V23.2892Z" fill="#5F63F2"/>
<path d="M35.1941 37.0168H35.1935C34.5397 37.0168 34.0097 37.5468 34.0097 38.2006V38.2416C34.0097 38.8953 34.5397 39.4253 35.1935 39.4253H35.1941C35.8479 39.4253 36.3779 38.8953 36.3779 38.2416V38.2006C36.3779 37.5468 35.8479 37.0168 35.1941 37.0168Z" fill="#5F63F2"/>
<path fill-rule="evenodd" clip-rule="evenodd" d="M16.5399 40.589H20.9141C21.063 40.5888 21.2071 40.536 21.3209 40.4399C21.4347 40.3438 21.5109 40.2105 21.5359 40.0637L21.8481 38.2208H27.2295V42.9969H16.5399V40.589Z" fill="#5F63F2"/>
<path fill-rule="evenodd" clip-rule="evenodd" d="M9.6859 37.0163H27.2668V32.2799H10.3706V11.3682H39.5921V19.8373H42V10.6853C42 9.76232 41.2377 9 40.2744 9H9.6859C9.23967 9.00256 8.81243 9.18092 8.49684 9.4964C8.18124 9.81188 8.00273 10.2391 8 10.6853V35.3304C8.00272 35.7767 8.18123 36.2039 8.49681 36.5195C8.81238 36.8351 9.23961 37.0136 9.6859 37.0163V37.0163Z" fill="#5F63F2"/>
</svg>
