<svg width="50" height="50" viewBox="0 0 50 50" fill="none" xmlns="http://www.w3.org/2000/svg">
<rect width="50" height="50" rx="10" fill="#5F63F2"/>
<path d="M24.9994 5.5C21.1426 5.5 17.3726 6.64366 14.1658 8.78634C10.9591 10.929 8.45967 13.9745 6.98377 17.5377C5.50786 21.1008 5.12163 25.0216 5.87404 28.8042C6.62645 32.5869 8.4837 36.0615 11.2108 38.7886C13.9379 41.5157 17.4124 43.3729 21.195 44.1253C24.9777 44.8777 28.8984 44.4916 32.4616 43.0156C36.0247 41.5397 39.0703 39.0404 41.213 35.8336C43.3557 32.6268 44.4993 28.8567 44.4993 25C44.4993 19.8283 42.4448 14.8684 38.7879 11.2114C35.1309 7.55445 30.1711 5.5 24.9994 5.5ZM36.1826 35.8517C35.7475 34.3159 34.9328 32.9143 33.8134 31.7763C32.9135 30.8535 31.8385 30.1196 30.6515 29.6173C29.4646 29.1151 28.1894 28.8547 26.9006 28.8513H23.0982C21.004 28.8368 18.9627 29.5086 17.2865 30.764C15.6103 32.0194 14.3913 33.7893 13.8161 35.803C11.6779 33.6044 10.235 30.8243 9.66811 27.8103C9.1012 24.7962 9.43549 21.6819 10.6288 18.8567C11.8222 16.0315 13.8217 13.6207 16.3777 11.9257C18.9336 10.2307 21.9324 9.32663 24.9994 9.32663C28.0663 9.32663 31.0651 10.2307 33.6211 11.9257C36.177 13.6207 38.1766 16.0315 39.3699 18.8567C40.5632 21.6819 40.8975 24.7962 40.3306 27.8103C39.7637 30.8243 38.3208 33.6044 36.1826 35.803V35.8517Z" fill="white"/>
<path d="M24.9993 25C28.2301 25 30.8493 22.3809 30.8493 19.15C30.8493 15.9191 28.2301 13.3 24.9993 13.3C21.7684 13.3 19.1493 15.9191 19.1493 19.15C19.1493 22.3809 21.7684 25 24.9993 25Z" fill="white"/>
</svg>
