<svg width="127" height="126" viewBox="0 0 127 126" fill="none" xmlns="http://www.w3.org/2000/svg">
<rect x="0.608093" width="125.784" height="125.784" rx="62.8919" fill="#BFBFBF"/>
<path d="M87.8194 80.5436C86.4953 77.4073 84.5738 74.5584 82.162 72.1557C79.7574 69.7461 76.909 67.8249 73.774 66.4982C73.746 66.4842 73.7179 66.4772 73.6898 66.4632C78.0628 63.3045 80.9055 58.1595 80.9055 52.3546C80.9055 42.7383 73.1142 34.947 63.498 34.947C53.8817 34.947 46.0904 42.7383 46.0904 52.3546C46.0904 58.1595 48.9332 63.3045 53.3061 66.4702C53.278 66.4842 53.25 66.4912 53.2219 66.5053C50.0773 67.8319 47.2556 69.7341 44.8339 72.1627C42.4243 74.5673 40.5031 77.4157 39.1765 80.5507C37.8732 83.6198 37.1703 86.9104 37.1058 90.2442C37.104 90.3191 37.1171 90.3936 37.1445 90.4634C37.1719 90.5331 37.2129 90.5967 37.2652 90.6503C37.3176 90.704 37.3801 90.7466 37.4492 90.7757C37.5182 90.8048 37.5924 90.8198 37.6674 90.8197H41.8789C42.1877 90.8197 42.4334 90.5741 42.4404 90.2722C42.5808 84.8534 44.7567 79.7785 48.6032 75.932C52.5831 71.9522 57.8686 69.7622 63.498 69.7622C69.1273 69.7622 74.4128 71.9522 78.3927 75.932C82.2392 79.7785 84.4151 84.8534 84.5555 90.2722C84.5625 90.5811 84.8082 90.8197 85.117 90.8197H89.3286C89.4035 90.8198 89.4777 90.8048 89.5467 90.7757C89.6158 90.7466 89.6783 90.704 89.7307 90.6503C89.783 90.5967 89.8241 90.5331 89.8514 90.4634C89.8788 90.3936 89.892 90.3191 89.8901 90.2442C89.8199 86.889 89.125 83.6251 87.8194 80.5436ZM63.498 64.4276C60.2762 64.4276 57.2439 63.1712 54.9626 60.8899C52.6814 58.6087 51.425 55.5764 51.425 52.3546C51.425 49.1328 52.6814 46.1005 54.9626 43.8193C57.2439 41.538 60.2762 40.2816 63.498 40.2816C66.7198 40.2816 69.752 41.538 72.0333 43.8193C74.3145 46.1005 75.571 49.1328 75.571 52.3546C75.571 55.5764 74.3145 58.6087 72.0333 60.8899C69.752 63.1712 66.7198 64.4276 63.498 64.4276Z" fill="white"/>
</svg>
