<svg width="50" height="50" viewBox="0 0 50 50" fill="none" xmlns="http://www.w3.org/2000/svg">
<rect width="50" height="50" rx="10" fill="white"/>
<path d="M25.3393 20.6121C25.2444 20.6106 25.1502 20.628 25.0621 20.6634C24.974 20.6988 24.8938 20.7514 24.8262 20.8182C24.7586 20.885 24.7049 20.9647 24.6682 21.0526C24.6316 21.1404 24.6127 21.2347 24.6127 21.33C24.6127 21.4253 24.6316 21.5196 24.6682 21.6074C24.7049 21.6953 24.7586 21.775 24.8262 21.8418C24.8938 21.9086 24.974 21.9612 25.0621 21.9966C25.1502 22.032 25.2444 22.0494 25.3393 22.0479H29.2451C29.34 22.0494 29.4342 22.032 29.5223 21.9966C29.6103 21.9612 29.6905 21.9086 29.7581 21.8418C29.8258 21.775 29.8795 21.6953 29.9161 21.6074C29.9528 21.5196 29.9717 21.4253 29.9717 21.33C29.9717 21.2347 29.9528 21.1404 29.9161 21.0526C29.8795 20.9647 29.8258 20.885 29.7581 20.8182C29.6905 20.7514 29.6103 20.6988 29.5223 20.6634C29.4342 20.628 29.34 20.6106 29.2451 20.6121H25.3393Z" fill="#5F63F2"/>
<path d="M24.0896 40.0507H13.7262C13.6353 40.0506 13.5481 40.0143 13.4838 39.9498C13.4195 39.8853 13.3833 39.7977 13.3831 39.7064V11.8476H16.805C17.1673 11.8473 17.5147 11.7026 17.7709 11.4454C18.0272 11.1881 18.1713 10.8392 18.1716 10.4754V7.39366H35.955C36.0459 7.39381 36.1331 7.43014 36.1973 7.49468C36.2616 7.55922 36.2978 7.64671 36.2979 7.73798V23.6341C36.2959 23.7925 36.3253 23.9498 36.3843 24.0967C36.4433 24.2436 36.5307 24.3773 36.6416 24.49C36.7524 24.6027 36.8844 24.6922 37.03 24.7533C37.1755 24.8143 37.3317 24.8458 37.4895 24.8458C37.6472 24.8458 37.8034 24.8143 37.9489 24.7533C38.0945 24.6922 38.2265 24.6027 38.3373 24.49C38.4482 24.3773 38.5356 24.2436 38.5946 24.0967C38.6536 23.9498 38.683 23.7925 38.681 23.6341V7.73742C38.681 6.22788 37.4583 5 35.955 5H17.7392C17.0166 5.002 16.324 5.29016 15.8117 5.8019L11.7993 9.83173C11.5451 10.0853 11.3435 10.387 11.2063 10.7194C11.0691 11.0518 10.999 11.4082 11 11.768V39.7064C11 41.216 12.2228 42.4437 13.7262 42.4437H24.0896C24.4055 42.4437 24.7086 42.3176 24.932 42.0932C25.1555 41.8688 25.281 41.5645 25.281 41.2472C25.281 40.9299 25.1555 40.6256 24.932 40.4012C24.7086 40.1768 24.4055 40.0507 24.0896 40.0507V40.0507Z" fill="#5F63F2"/>
<path d="M33.2725 14.3209H16.4079C16.2203 14.3239 16.0415 14.4009 15.9099 14.5352C15.7783 14.6695 15.7045 14.8504 15.7045 15.0388C15.7045 15.2272 15.7783 15.408 15.9099 15.5423C16.0415 15.6766 16.2203 15.7536 16.4079 15.7567H33.2725C33.3674 15.7582 33.4616 15.7408 33.5497 15.7054C33.6377 15.67 33.7179 15.6174 33.7856 15.5506C33.8532 15.4837 33.9069 15.4041 33.9435 15.3162C33.9802 15.2284 33.9991 15.134 33.9991 15.0388C33.9991 14.9435 33.9802 14.8492 33.9435 14.7613C33.9069 14.6735 33.8532 14.5938 33.7856 14.527C33.7179 14.4602 33.6377 14.4076 33.5497 14.3722C33.4616 14.3368 33.3674 14.3194 33.2725 14.3209Z" fill="#5F63F2"/>
<path d="M16.4079 20.6121C16.2203 20.6152 16.0415 20.6921 15.9099 20.8264C15.7783 20.9607 15.7045 21.1416 15.7045 21.33C15.7045 21.5184 15.7783 21.6993 15.9099 21.8336C16.0415 21.9679 16.2203 22.0448 16.4079 22.0479H22.5708C22.6656 22.0494 22.7598 22.032 22.8479 21.9966C22.936 21.9612 23.0162 21.9086 23.0838 21.8418C23.1514 21.775 23.2051 21.6953 23.2418 21.6074C23.2784 21.5196 23.2973 21.4253 23.2973 21.33C23.2973 21.2347 23.2784 21.1404 23.2418 21.0526C23.2051 20.9647 23.1514 20.885 23.0838 20.8182C23.0162 20.7514 22.936 20.6988 22.8479 20.6634C22.7598 20.628 22.6656 20.6106 22.5708 20.6121H16.4079Z" fill="#5F63F2"/>
<path d="M33.9877 18.1842C33.9876 17.9938 33.9123 17.8112 33.7782 17.6766C33.6441 17.542 33.4623 17.4664 33.2727 17.4664H16.4079C16.2203 17.4695 16.0415 17.5464 15.9099 17.6807C15.7783 17.815 15.7045 17.9959 15.7045 18.1843C15.7045 18.3727 15.7783 18.5536 15.9099 18.6879C16.0415 18.8222 16.2203 18.8991 16.4079 18.9022H33.2725C33.3664 18.9022 33.4594 18.8837 33.5462 18.8476C33.633 18.8115 33.7118 18.7586 33.7782 18.692C33.8446 18.6253 33.8973 18.5461 33.9333 18.459C33.9692 18.3719 33.9877 18.2785 33.9877 18.1842V18.1842Z" fill="#5F63F2"/>
<path d="M33.8146 25.3617C28.7419 25.3617 24.6296 29.4912 24.6296 34.5852C24.6296 39.6793 28.7419 43.8092 33.8146 43.8092C38.8873 43.8092 43 39.6794 43 34.5852C43 29.491 38.8875 25.3617 33.8146 25.3617ZM34.9319 39.9139V41.0881H32.6975V39.9449C31.7742 39.6392 31.051 38.9624 30.7193 38.0134L32.8261 37.2685C33.0239 37.8294 33.5825 37.8894 33.8152 37.8894C34.4378 37.8894 34.8713 37.4673 34.8713 36.8611C34.8713 36.6069 34.8713 36.0096 33.541 35.6735C30.917 35.0075 30.5245 33.281 30.5245 32.3111C30.5245 30.8717 31.4251 29.7053 32.6979 29.2566V28.0839H34.9322V29.2256C35.8554 29.5313 36.5788 30.2081 36.9104 31.1571L34.8041 31.902C34.6064 31.3411 34.0479 31.2811 33.815 31.2811C33.1925 31.2811 32.759 31.7046 32.759 32.3109C32.759 32.5651 32.759 33.1609 34.0893 33.4962C36.7124 34.1623 37.1059 35.8888 37.1059 36.8602C37.1049 38.299 36.2043 39.4651 34.9319 39.9139V39.9139Z" fill="#5F63F2"/>
</svg>
