<svg width="17" height="14" viewBox="0 0 17 14" fill="none" xmlns="http://www.w3.org/2000/svg">
<path fill-rule="evenodd" clip-rule="evenodd" d="M8.53171 0C4.23972 0 0.761192 3.13359 0.761192 7C0.761192 10.8664 4.23972 14 8.53171 14C12.8237 14 16.3022 10.8664 16.3022 7C16.3022 3.13359 12.8237 0 8.53171 0ZM8.53171 2.625C8.80034 2.625 9.01737 2.82051 9.01737 3.0625C9.01737 3.30449 8.80034 3.5 8.53171 3.5C8.26308 3.5 8.04606 3.30449 8.04606 3.0625C8.04606 2.82051 8.26308 2.625 8.53171 2.625ZM9.9811 11.375H8.99461H8.02329H7.08233C6.8137 11.375 6.59667 11.1795 6.59667 10.9375C6.59667 10.6955 6.8137 10.5 7.08233 10.5H8.02329V6.09082H7.06715C6.79852 6.09082 6.5815 5.89531 6.5815 5.65332C6.5815 5.41133 6.79852 5.21582 7.06715 5.21582H8.02329H8.50895C8.77758 5.21582 8.99461 5.41133 8.99461 5.65332V10.5H9.9811C10.2497 10.5 10.4819 10.6955 10.4819 10.9375C10.4819 11.1795 10.2497 11.375 9.9811 11.375Z" fill="#1890FF"/>
</svg>
