<svg width="50" height="50" viewBox="0 0 50 50" fill="none" xmlns="http://www.w3.org/2000/svg">
<rect width="50" height="50" rx="10" fill="#5F63F2"/>
<path d="M24.5 7C21.0388 7 17.6553 8.02636 14.7775 9.94928C11.8996 11.8722 9.65669 14.6053 8.33216 17.8031C7.00763 21.0008 6.66101 24.5194 7.33625 27.9141C8.01149 31.3087 9.67826 34.427 12.1257 36.8744C14.5731 39.3218 17.6912 40.9885 21.0859 41.6637C24.4806 42.339 27.9992 41.9924 31.1969 40.6679C34.3946 39.3434 37.1278 37.1004 39.0507 34.2225C40.9737 31.3446 42 27.9612 42 24.5C42 19.8587 40.1562 15.4075 36.8743 12.1256C33.5924 8.84373 29.1413 7 24.5 7ZM30.9924 30.9925C30.8298 31.1565 30.6362 31.2867 30.4229 31.3756C30.2097 31.4644 29.981 31.5101 29.75 31.5101C29.519 31.5101 29.2903 31.4644 29.0771 31.3756C28.8638 31.2867 28.6703 31.1565 28.5076 30.9925L23.2576 25.7425C22.9355 25.4086 22.7538 24.9639 22.75 24.5V15.75C22.75 15.2859 22.9343 14.8408 23.2625 14.5126C23.5907 14.1844 24.0359 14 24.5 14C24.9641 14 25.4093 14.1844 25.7375 14.5126C26.0657 14.8408 26.25 15.2859 26.25 15.75V23.7825L30.9924 28.5075C31.1565 28.6702 31.2866 28.8637 31.3755 29.077C31.4643 29.2902 31.51 29.519 31.51 29.75C31.51 29.981 31.4643 30.2098 31.3755 30.423C31.2866 30.6363 31.1565 30.8298 30.9924 30.9925V30.9925Z" fill="white"/>
</svg>
