<svg width="50" height="50" viewBox="0 0 50 50" fill="none" xmlns="http://www.w3.org/2000/svg">
<rect width="50" height="50" rx="10" fill="white"/>
<path d="M29.9091 13.5455V11.9091H10.2727C9.83874 11.9091 9.42252 11.7367 9.11564 11.4298C8.80876 11.1229 8.63636 10.7067 8.63636 10.2727C8.63636 9.83874 8.80876 9.42252 9.11564 9.11564C9.42252 8.80876 9.83874 8.63636 10.2727 8.63636H26.6364V10.2727H28.2727V7H10.2727C9.40475 7 8.57231 7.3448 7.95856 7.95856C7.3448 8.57231 7 9.40475 7 10.2727V31.5455C7 32.4134 7.3448 33.2459 7.95856 33.8596C8.57231 34.4734 9.40475 34.8182 10.2727 34.8182H18.4545V16.8182C18.4545 15.9502 18.7993 15.1178 19.4131 14.504C20.0269 13.8903 20.8593 13.5455 21.7273 13.5455H29.9091ZM23.3636 20.0909C22.9296 20.0909 22.5134 19.9185 22.2066 19.6116C21.8997 19.3048 21.7273 18.8885 21.7273 18.4545C21.7273 18.0206 21.8997 17.6043 22.2066 17.2975C22.5134 16.9906 22.9296 16.8182 23.3636 16.8182H39.7273V18.4545H41.3636V15.1818H23.3636C22.4957 15.1818 21.6632 15.5266 21.0495 16.1404C20.4357 16.7541 20.0909 17.5866 20.0909 18.4545V39.7273C20.0909 40.5953 20.4357 41.4277 21.0495 42.0414C21.6632 42.6552 22.4957 43 23.3636 43H43V20.0909H23.3636Z" fill="#5F63F2"/>
</svg>
