<svg width="101" height="101" viewBox="0 0 101 101" fill="none" xmlns="http://www.w3.org/2000/svg">
<path d="M30.6157 36.163C30.4975 36.066 30.3812 35.9691 30.2601 35.8771C30.1874 35.8228 30.1128 35.7734 30.0382 35.722C29.9267 35.6426 29.8163 35.5621 29.7019 35.4875C29.6225 35.4361 29.5401 35.3906 29.4597 35.3412C29.3482 35.2733 29.2378 35.2055 29.1244 35.1474C29.0401 35.1008 28.9529 35.0592 28.8676 35.0146C28.7542 34.9564 28.6428 34.8973 28.5294 34.845C28.4403 34.8033 28.3501 34.7675 28.261 34.7287C28.1466 34.6803 28.0342 34.6318 27.918 34.5853C27.8269 34.5514 27.7348 34.5213 27.6437 34.4884C27.5274 34.4477 27.4112 34.407 27.2939 34.3702C27.197 34.3411 27.1088 34.3178 27.0158 34.2917C26.8966 34.2597 26.7784 34.2258 26.6592 34.1947C26.5623 34.1725 26.4712 34.155 26.3772 34.1347C26.258 34.1104 26.1369 34.0862 26.0158 34.0658C25.9189 34.0503 25.8288 34.0378 25.7338 34.0252C25.6117 34.0087 25.4896 33.9922 25.3665 33.9806C25.2696 33.9709 25.1795 33.9651 25.0855 33.9593C24.9615 33.9505 24.8384 33.9428 24.7144 33.9389C24.6175 33.9389 24.5274 33.9389 24.4334 33.9389C24.3093 33.9389 24.1843 33.9389 24.0603 33.9389C23.9634 33.9389 23.8742 33.9476 23.7812 33.9544C23.6562 33.9622 23.5322 33.9719 23.4072 33.9845C23.3103 33.9942 23.224 34.0058 23.132 34.0174C23.007 34.0339 22.8829 34.0523 22.7589 34.0746C22.6678 34.0901 22.5767 34.1066 22.4866 34.125C22.3626 34.1492 22.2385 34.1773 22.1155 34.2064C22.0263 34.2277 21.9372 34.251 21.848 34.2752C21.786 34.2926 21.724 34.3043 21.6629 34.3236C21.5554 34.3547 21.4497 34.3876 21.3441 34.4205L21.287 34.439C21.1901 34.4709 21.099 34.5049 21.004 34.5359L20.9071 34.5717L20.6542 34.6686L20.5302 34.721C20.4546 34.7539 20.379 34.7862 20.3034 34.8179L20.1542 34.8886C20.0863 34.9215 20.0195 34.9535 19.9516 34.9855L19.7763 35.0824L19.6038 35.1793C19.5311 35.22 19.4594 35.2636 19.3877 35.3063C19.3441 35.3324 19.3005 35.3576 19.2578 35.3848C19.1425 35.4565 19.0282 35.5301 18.9148 35.6077C19.0007 35.4785 19.0834 35.3493 19.1629 35.22C19.189 35.1784 19.2132 35.1357 19.2375 35.0941C19.2908 35.0059 19.3431 34.9167 19.3925 34.8266C19.4197 34.7772 19.4458 34.7297 19.472 34.6773C19.5166 34.593 19.5602 34.5087 19.6028 34.4235L19.6774 34.2665C19.7171 34.1812 19.7569 34.0959 19.7937 34.0097C19.816 33.9583 19.8383 33.9069 19.8606 33.8536C19.8974 33.7654 19.9323 33.6763 19.9662 33.5871C19.9856 33.5367 20.004 33.4902 20.0224 33.4369C20.0573 33.34 20.0893 33.2431 20.1193 33.1462C20.1338 33.1016 20.1493 33.0561 20.1639 33.0105C20.1968 32.903 20.2278 32.7944 20.2608 32.6849C20.2705 32.651 20.2811 32.618 20.2889 32.588C20.3267 32.4455 20.3615 32.2973 20.3925 32.1568V32.1451C20.441 31.9155 20.4788 31.6848 20.5108 31.4532C20.5166 31.4077 20.5234 31.3631 20.5292 31.3175C20.5573 31.0937 20.5767 30.8679 20.5883 30.6392C20.5883 30.5917 20.5883 30.5423 20.5951 30.4948C20.6048 30.2661 20.6057 30.0383 20.5951 29.8087C20.5951 29.7728 20.5951 29.737 20.5951 29.7011C20.5854 29.4579 20.5689 29.2166 20.5398 28.9743C20.5263 28.8464 20.5079 28.7175 20.4885 28.5867V28.5712C20.4678 28.4484 20.4455 28.3253 20.4216 28.2019C20.4216 28.1922 20.4216 28.1826 20.4158 28.1729C20.3925 28.0537 20.3664 27.9364 20.3373 27.8182L20.3286 27.7755C20.3005 27.6622 20.2705 27.5497 20.2385 27.4364C20.2327 27.4179 20.2278 27.3995 20.222 27.3801C20.191 27.2726 20.158 27.165 20.1251 27.0575C20.1183 27.0342 20.1096 27.0109 20.1018 26.9867C20.0676 26.8853 20.0318 26.7835 19.9943 26.6814C19.9836 26.6533 19.972 26.6252 19.9623 26.5971C19.9245 26.5002 19.8867 26.4033 19.846 26.3064C19.8325 26.2744 19.817 26.2415 19.8034 26.2095C19.7646 26.1194 19.7239 26.0283 19.6813 25.9391C19.6638 25.9013 19.6454 25.8645 19.627 25.8277C19.5863 25.7434 19.5447 25.6581 19.5001 25.5748L19.4332 25.4497C19.3906 25.3722 19.3479 25.2937 19.3034 25.2162C19.2762 25.1707 19.2481 25.1251 19.22 25.0795C19.1764 25.0059 19.1338 24.9342 19.0873 24.8625C19.0563 24.813 19.0224 24.7656 18.9904 24.7142C18.9468 24.6473 18.9032 24.5805 18.8567 24.5204C18.8101 24.4603 18.7782 24.4119 18.7394 24.3586C18.7006 24.3053 18.6532 24.2393 18.6086 24.1802C18.564 24.1211 18.5117 24.063 18.4671 24.0029C18.4225 23.9428 18.3847 23.8992 18.3421 23.8488C18.2849 23.78 18.2249 23.7141 18.1667 23.6472C18.1309 23.6065 18.096 23.5649 18.0582 23.5242C17.9613 23.4186 17.8644 23.3129 17.7578 23.2102C16.8519 22.3043 15.7765 21.5857 14.593 21.0954C13.4094 20.6051 12.1409 20.3528 10.8598 20.3528C9.57874 20.3528 8.31022 20.6051 7.12666 21.0954C5.94311 21.5857 4.86769 22.3043 3.96184 23.2102C3.05599 24.1161 2.33743 25.1916 1.84718 26.3752C1.35694 27.5589 1.10461 28.8274 1.10461 30.1086C1.10461 31.3898 1.35694 32.6584 1.84718 33.842C2.33743 35.0256 3.05599 36.1011 3.96184 37.007C4.06456 37.1097 4.16922 37.2102 4.27581 37.3084C4.31651 37.3452 4.35817 37.3801 4.39984 37.4169C4.46573 37.4751 4.53163 37.5352 4.59946 37.5914C4.65082 37.635 4.70412 37.6757 4.75644 37.7183C4.80877 37.761 4.87272 37.8152 4.93183 37.8579C4.99094 37.9005 5.05199 37.9461 5.11304 37.9906C5.17408 38.0352 5.21769 38.0691 5.27099 38.106C5.32428 38.1428 5.40569 38.198 5.47352 38.2426L5.6179 38.3395C5.69058 38.387 5.7652 38.4316 5.83884 38.4752L5.97063 38.5546C6.05009 38.6002 6.12954 38.6438 6.20997 38.6874C6.25003 38.7094 6.28975 38.7307 6.32916 38.7514C6.4154 38.7969 6.50165 38.8396 6.58789 38.8822L6.69254 38.9326C6.78944 38.9762 6.87763 39.0179 6.97065 39.0576L7.06078 39.0973C7.15768 39.138 7.25457 39.1778 7.35729 39.2156C7.38248 39.2266 7.40768 39.2362 7.43288 39.2446C7.53753 39.2844 7.64218 39.3212 7.74781 39.357L7.80789 39.3764C7.91835 39.4133 8.02883 39.4472 8.14027 39.4792L8.18678 39.4927C8.30306 39.5257 8.41934 39.5557 8.53562 39.5838C8.54574 39.5872 8.5561 39.5898 8.56662 39.5916C8.68872 39.6213 8.81082 39.6484 8.93292 39.673H8.94939C9.07634 39.6982 9.20328 39.7214 9.337 39.7418C9.46879 39.7621 9.5996 39.7796 9.73042 39.7951H9.7469C9.98431 39.8232 10.2227 39.8397 10.4611 39.8494L10.5725 39.8542C10.8041 39.861 11.0367 39.8542 11.2673 39.8494C11.309 39.8494 11.3497 39.8493 11.3904 39.8435C11.6229 39.8319 11.8552 39.8115 12.0871 39.7825L12.184 39.7699C12.4262 39.736 12.6685 39.6962 12.9098 39.6458C13.0532 39.6139 13.2005 39.5799 13.339 39.5431L13.4418 39.5141C13.5493 39.485 13.6579 39.454 13.7654 39.4171C13.811 39.4036 13.8555 39.3881 13.9011 39.3735C13.998 39.3415 14.0949 39.3096 14.1918 39.2766L14.341 39.2204C14.4311 39.1855 14.5203 39.1506 14.6094 39.1138L14.7645 39.0479C14.8507 39.0092 14.937 38.9704 15.0222 38.9297C15.0736 38.9064 15.1259 38.8812 15.1782 38.856C15.2635 38.8144 15.3488 38.7698 15.4331 38.7242C15.4816 38.6981 15.53 38.6738 15.5804 38.6457C15.6705 38.5963 15.7597 38.543 15.8488 38.4907L15.9748 38.417C16.104 38.3376 16.2332 38.2549 16.3624 38.169C16.2858 38.2814 16.2122 38.3957 16.1405 38.511C16.1134 38.5547 16.0872 38.5982 16.061 38.6428C16.0194 38.7136 15.9758 38.7843 15.9351 38.857C15.9021 38.9142 15.8721 38.9723 15.8382 39.0305C15.8042 39.0886 15.7752 39.1468 15.7413 39.2059C15.7073 39.265 15.6744 39.3406 15.6444 39.4084C15.6201 39.4569 15.5959 39.5053 15.5736 39.5567C15.5387 39.6323 15.5048 39.7078 15.4709 39.7844C15.4535 39.8251 15.436 39.8668 15.4195 39.9075C15.3847 39.9918 15.3507 40.0761 15.3226 40.1614C15.311 40.1924 15.2984 40.2244 15.2868 40.2583C15.2519 40.3552 15.219 40.4453 15.1899 40.5393C15.1821 40.5597 15.1763 40.581 15.1695 40.6014C15.1346 40.706 15.1017 40.8107 15.0726 40.9163C15.0542 40.9793 15.0406 41.0423 15.0242 41.1101C15 41.1973 14.9777 41.2846 14.9554 41.3727C14.9253 41.4978 14.8992 41.6228 14.874 41.7478C14.8556 41.8369 14.8391 41.9271 14.8236 42.0172C14.8013 42.1422 14.7839 42.2672 14.7674 42.3932C14.7548 42.4843 14.7441 42.5744 14.7344 42.6665C14.7209 42.7915 14.7122 42.9165 14.7044 43.0415C14.6976 43.1384 14.6918 43.2266 14.6889 43.3196C14.6889 43.4437 14.6889 43.5677 14.6889 43.6927C14.6889 43.7896 14.6889 43.8797 14.6889 43.9728C14.6889 44.0968 14.7005 44.2209 14.7083 44.3439C14.7151 44.4409 14.7209 44.532 14.7306 44.626C14.7432 44.7481 14.7587 44.8711 14.7751 44.9923C14.7877 45.0892 14.8003 45.1861 14.8149 45.2752C14.8352 45.3964 14.8604 45.5165 14.8856 45.6367C14.904 45.7336 14.9224 45.8237 14.9447 45.9177C14.9719 46.0379 15.0058 46.1561 15.0416 46.2744C15.0668 46.3713 15.091 46.4595 15.1191 46.5525C15.156 46.6697 15.1976 46.787 15.2374 46.9033C15.2693 46.9944 15.2994 47.0855 15.3343 47.1766C15.3788 47.2919 15.4312 47.4063 15.4777 47.5206C15.5155 47.6098 15.5523 47.6989 15.592 47.7871C15.6463 47.9015 15.7054 48.0129 15.7626 48.1253C15.8071 48.2116 15.8478 48.2978 15.8953 48.3831C15.9573 48.4955 16.0271 48.606 16.0891 48.7174C16.1385 48.7988 16.186 48.8812 16.2355 48.9607C16.3101 49.075 16.3895 49.1855 16.469 49.2969C16.5213 49.3706 16.5659 49.4462 16.625 49.5179C16.7151 49.639 16.8188 49.7563 16.9157 49.8735C16.9651 49.9327 17.0126 49.9947 17.0611 50.0538C17.2129 50.2282 17.3715 50.3984 17.5368 50.5645L22.5506 55.5785L65.8851 98.9159C67.2175 100.241 69.02 100.984 70.8988 100.984C72.7777 100.984 74.5802 100.241 75.9126 98.9159L79.682 95.1472C81.0068 93.8148 81.7505 92.0121 81.7505 90.1331C81.7505 88.2541 81.0068 86.4515 79.682 85.1191L36.3475 41.7807L31.3338 36.7677C31.1681 36.601 30.9975 36.443 30.8221 36.2919C30.733 36.2589 30.6719 36.2124 30.6157 36.163Z" fill="#6BB3D4"/>
<path d="M70.3862 64.8372C70.5044 64.9341 70.6207 65.031 70.7418 65.1279C70.8145 65.1812 70.8901 65.2297 70.9627 65.282C71.0742 65.3615 71.1856 65.4419 71.299 65.5165C71.3794 65.5679 71.4618 65.6134 71.5422 65.6628C71.6537 65.7307 71.7641 65.7995 71.8775 65.8625C71.9628 65.909 72.049 65.9497 72.1343 65.9943C72.2467 66.0515 72.3591 66.1106 72.4734 66.1639C72.5616 66.2046 72.6517 66.2414 72.7409 66.2802C72.8543 66.3286 72.9676 66.3771 73.0839 66.4226C73.174 66.4585 73.2671 66.4885 73.3582 66.5195C73.4744 66.5602 73.5907 66.6019 73.708 66.6368C73.8049 66.6658 73.894 66.6901 73.9861 66.7153C74.1053 66.7492 74.2235 66.7821 74.3427 66.8122C74.4396 66.8335 74.5297 66.8519 74.6237 66.8703C74.7448 66.8955 74.865 66.9207 74.9861 66.9401C75.083 66.9556 75.1731 66.9682 75.2681 66.9798C75.3902 66.9963 75.5123 67.0137 75.6354 67.0254C75.7323 67.0341 75.8224 67.0399 75.9164 67.0467C76.0404 67.0554 76.1644 67.0632 76.2875 67.067C76.3844 67.067 76.4745 67.067 76.5685 67.067C76.6926 67.067 76.8166 67.067 76.9416 67.0622C77.0385 67.0622 77.1276 67.0525 77.2197 67.0467C77.3447 67.0389 77.4697 67.0292 77.5947 67.0166C77.6916 67.007 77.7779 66.9953 77.8699 66.9837C77.994 66.9672 78.119 66.9488 78.243 66.9275C78.3341 66.912 78.4242 66.8945 78.5153 66.8761C78.6393 66.8509 78.7624 66.8238 78.8864 66.7947C78.9756 66.7724 79.0647 66.7501 79.1539 66.7259C79.2159 66.7094 79.2779 66.6959 79.339 66.6784C79.4455 66.6474 79.5521 66.6135 79.6578 66.5815L79.7149 66.5621C79.8118 66.5311 79.9087 66.4962 79.9969 66.4652L80.0938 66.4294C80.1791 66.3964 80.2634 66.3625 80.3477 66.3276L80.4708 66.2753C80.5473 66.2424 80.6229 66.2084 80.6985 66.1735C80.7489 66.1513 80.7954 66.1261 80.8477 66.1018C80.9146 66.0699 80.9824 66.0369 81.0493 66.0049C81.1161 65.9729 81.1675 65.9429 81.2256 65.908L81.3981 65.8111C81.4708 65.7704 81.5425 65.7268 81.6142 65.6842L81.7441 65.6066C81.8594 65.534 81.9747 65.4603 82.0871 65.3828C82.0009 65.5088 81.9185 65.6367 81.8381 65.7704C81.8129 65.8121 81.7886 65.8538 81.7644 65.8964C81.7111 65.9856 81.6588 66.0747 81.6094 66.1639C81.5822 66.2133 81.5561 66.2608 81.5299 66.3131C81.4853 66.3974 81.4408 66.4817 81.3991 66.566C81.3739 66.6193 81.3497 66.6716 81.3245 66.724C81.2847 66.8083 81.245 66.8945 81.2082 66.9798L81.1413 67.1358C81.1045 67.225 81.0696 67.3132 81.0357 67.4033L80.9785 67.5535C80.9446 67.6504 80.9126 67.7473 80.8816 67.8442C80.8661 67.8888 80.8506 67.9344 80.8371 67.9799C80.8031 68.0875 80.7721 68.197 80.7402 68.3055C80.7314 68.3385 80.7208 68.3724 80.7121 68.4024C80.6752 68.5468 80.6404 68.6932 80.6093 68.8346V68.8473C80.5609 69.076 80.5231 69.3076 80.4911 69.5392C80.4853 69.5837 80.4776 69.6293 80.4727 69.6739C80.4446 69.8977 80.4252 70.1226 80.4126 70.3474L80.4068 70.4928C80.3971 70.7205 80.3952 70.9502 80.4068 71.1789C80.4068 71.2147 80.4068 71.2506 80.4068 71.2864C80.4165 71.5297 80.433 71.771 80.4611 72.0132C80.4766 72.1424 80.494 72.2717 80.5134 72.4009V72.4164C80.5328 72.5394 80.5541 72.6625 80.5783 72.7856C80.5812 72.7951 80.5831 72.8048 80.5841 72.8147C80.6087 72.9329 80.6348 73.0511 80.6626 73.1694C80.6626 73.1839 80.6694 73.1984 80.6733 73.212C80.7004 73.3254 80.7305 73.4388 80.7624 73.5512C80.7624 73.5706 80.7731 73.588 80.778 73.6074C80.8099 73.715 80.8429 73.8235 80.8749 73.9301C80.8826 73.9533 80.8904 73.9766 80.8991 73.9999C80.933 74.1026 80.9688 74.2043 81.0066 74.3061C81.0183 74.3342 81.028 74.3623 81.0386 74.3914C81.0764 74.4883 81.1142 74.5852 81.1549 74.6821C81.1685 74.715 81.183 74.748 81.1975 74.779C81.2363 74.8701 81.277 74.9593 81.3196 75.0494C81.3371 75.0872 81.3555 75.124 81.3739 75.1599C81.4146 75.2451 81.4563 75.3294 81.4999 75.4137L81.5677 75.5387C81.6103 75.6163 81.653 75.6948 81.6985 75.7723C81.7247 75.8179 81.7528 75.8644 81.7799 75.9099C81.8235 75.9826 81.8671 76.0543 81.9136 76.126C81.9446 76.1764 81.9786 76.223 82.0105 76.2743C82.0551 76.3412 82.0987 76.4081 82.1443 76.4681C82.1898 76.5282 82.2237 76.5757 82.2625 76.63C82.3012 76.6842 82.3487 76.7492 82.3933 76.8073C82.4379 76.8655 82.4902 76.9265 82.5348 76.9856C82.5794 77.0447 82.6171 77.0893 82.6598 77.1407C82.7169 77.2075 82.7761 77.2744 82.8352 77.3413C82.871 77.381 82.9059 77.4236 82.9437 77.4643C83.0406 77.5709 83.1375 77.6756 83.2441 77.7783C84.15 78.6842 85.2255 79.4028 86.4091 79.8931C87.5927 80.3833 88.8613 80.6356 90.1424 80.6356C91.4235 80.6355 92.6921 80.3831 93.8757 79.8928C95.0593 79.4025 96.1347 78.6838 97.0405 77.7778C97.9464 76.8718 98.6649 75.7963 99.1551 74.6126C99.6454 73.4289 99.8977 72.1603 99.8976 70.8791C99.8976 69.5979 99.6452 68.3292 99.1549 67.1456C98.6646 65.9619 97.946 64.8864 97.04 63.9805C96.9373 63.8778 96.8327 63.778 96.7261 63.6811C96.6863 63.6433 96.6437 63.6084 96.602 63.5716C96.5361 63.5134 96.4693 63.4543 96.4024 63.3971C96.3511 63.3535 96.2978 63.3128 96.2454 63.2711C96.1931 63.2295 96.1292 63.1742 96.071 63.1306C96.0129 63.087 95.9499 63.0415 95.8898 62.9979C95.8297 62.9543 95.7842 62.9194 95.7309 62.8825C95.6776 62.8457 95.5962 62.7856 95.5293 62.7459L95.384 62.649C95.3113 62.6015 95.2377 62.5579 95.163 62.5133L95.0313 62.4338C94.9518 62.3873 94.8723 62.3447 94.7919 62.3011L94.6727 62.2362C94.5875 62.1916 94.5002 62.148 94.414 62.1063L94.3093 62.0549C94.2173 62.0123 94.1252 61.9706 94.0322 61.9299L93.9411 61.8912C93.8442 61.8495 93.7473 61.8107 93.6504 61.772C93.6242 61.7633 93.599 61.7526 93.5748 61.7429C93.4702 61.7041 93.3645 61.6673 93.2589 61.6324C93.2395 61.6257 93.2192 61.6179 93.1979 61.6121C93.0884 61.5752 92.9779 61.5413 92.8674 61.5094L92.82 61.4958C92.7037 61.4628 92.5884 61.4318 92.4711 61.3989L92.4401 61.3911C92.318 61.3621 92.1959 61.3349 92.0738 61.3107H92.0573C91.9304 61.2855 91.8035 61.2622 91.6755 61.2419C91.5447 61.2215 91.4139 61.2031 91.2821 61.1886H91.2656C91.0282 61.1624 90.7899 61.1459 90.5515 61.1353H90.44C90.2085 61.1275 89.9769 61.1295 89.7453 61.1353L89.6222 61.1421C89.3896 61.1547 89.1571 61.174 88.9255 61.2021L88.8286 61.2167C88.5863 61.2496 88.3441 61.2894 88.1028 61.3407C87.9606 61.3705 87.8182 61.4028 87.6754 61.4376C87.6405 61.4464 87.6066 61.457 87.5717 61.4667C87.4642 61.4967 87.3557 61.5268 87.2481 61.5636C87.2026 61.5772 87.158 61.5927 87.1124 61.6072C87.0155 61.6392 86.9186 61.6712 86.8217 61.7041L86.6715 61.7613C86.5824 61.7952 86.4932 61.8301 86.4041 61.8669L86.249 61.9328C86.1628 61.9706 86.0765 62.0104 85.9913 62.0501C85.9389 62.0743 85.8876 62.0985 85.8362 62.1247C85.75 62.1664 85.6657 62.211 85.5804 62.2565C85.531 62.2817 85.4835 62.3079 85.4331 62.335C85.343 62.3844 85.2529 62.4319 85.1647 62.4901C85.1221 62.5143 85.0804 62.5385 85.0397 62.5637C84.9099 62.6432 84.7819 62.7265 84.6521 62.8118C84.7286 62.6994 84.8033 62.585 84.875 62.4697C84.9021 62.4271 84.9263 62.3825 84.9525 62.3379C84.9951 62.2672 85.0387 62.1964 85.0794 62.1237C85.1124 62.0666 85.1434 62.0084 85.1763 61.9503C85.2093 61.8921 85.2393 61.833 85.2732 61.7749C85.3072 61.7167 85.3411 61.6402 85.3701 61.5723C85.3944 61.5229 85.4186 61.4754 85.4409 61.4241C85.4758 61.3485 85.5106 61.2729 85.5378 61.1963C85.5552 61.1547 85.5736 61.114 85.5901 61.0733C85.625 60.989 85.6599 60.9046 85.687 60.8194C85.6996 60.7883 85.7112 60.7554 85.7228 60.7225C85.7577 60.6255 85.7907 60.5354 85.8198 60.4414C85.8275 60.4211 85.8333 60.4007 85.8401 60.3794C85.875 60.2757 85.9079 60.1701 85.937 60.0644C85.9554 60.0015 85.969 59.9375 85.9855 59.8755C86.0097 59.7873 86.032 59.6991 86.0533 59.6119C86.0833 59.4869 86.1105 59.3619 86.1357 59.2368C86.1541 59.1467 86.1705 59.0576 86.186 58.9675C86.2074 58.8424 86.2258 58.7174 86.2432 58.5924C86.2549 58.5013 86.2665 58.4102 86.2752 58.3191C86.2878 58.1941 86.2975 58.0681 86.3052 57.9431C86.312 57.8462 86.3178 57.7571 86.3207 57.666C86.3207 57.541 86.3207 57.416 86.3207 57.2919C86.3207 57.195 86.3207 57.1049 86.3207 57.0109C86.3207 56.8878 86.3091 56.7638 86.3014 56.6397C86.2946 56.5428 86.2888 56.4527 86.28 56.3596C86.2674 56.2366 86.251 56.1135 86.2345 55.9914C86.2219 55.8945 86.2103 55.8034 86.1938 55.7104C86.1744 55.5883 86.1492 55.4681 86.125 55.347C86.1056 55.25 86.0872 55.1599 86.0659 55.0669C86.0368 54.9477 86.0039 54.8285 85.969 54.7103C85.9428 54.6133 85.9186 54.5242 85.8905 54.4321C85.8546 54.3149 85.812 54.1986 85.7713 54.0823C85.7393 53.9902 85.7093 53.8992 85.6744 53.8081C85.6289 53.6927 85.5775 53.5784 85.53 53.464C85.4922 53.3749 85.4554 53.2857 85.4147 53.1975C85.3614 53.0832 85.3033 52.9717 85.2451 52.8584C85.2006 52.7731 85.1599 52.6868 85.1124 52.6025C85.0504 52.4882 84.9806 52.3777 84.9186 52.2672C84.8691 52.1858 84.8217 52.1044 84.7713 52.024C84.6986 51.9106 84.6172 51.7991 84.5387 51.6877C84.4864 51.614 84.4418 51.5385 84.3827 51.4658C84.2916 51.3456 84.1889 51.2284 84.092 51.1111C84.0426 51.051 83.9951 50.99 83.9457 50.9308C83.7945 50.7564 83.6366 50.5858 83.4699 50.4192L78.4562 45.4061L35.1216 2.06775C33.789 0.743344 31.9866 0 30.1079 0C28.2292 0 26.4268 0.743344 25.0942 2.06775L21.3257 5.83749C20.0009 7.16974 19.2573 8.97219 19.2573 10.851C19.2573 12.7299 20.0009 14.5323 21.3257 15.8646L64.6816 59.1991L69.6953 64.2131C69.8619 64.3798 70.0315 64.5377 70.2059 64.6889C70.2651 64.7422 70.3271 64.7878 70.3862 64.8372Z" fill="#6BB3D4"/>
<path d="M64.8346 30.6113C64.9315 30.494 65.0284 30.3768 65.1253 30.2556C65.1796 30.1839 65.2281 30.1083 65.2804 30.0347C65.3598 29.9232 65.4403 29.8118 65.5139 29.6984C65.5653 29.618 65.6108 29.5366 65.6602 29.4552C65.7281 29.3437 65.7969 29.2332 65.8589 29.1199C65.9064 29.0355 65.9471 28.9493 65.9916 28.863C66.0498 28.7506 66.1089 28.6392 66.1622 28.5248C66.2029 28.4357 66.2387 28.3465 66.2775 28.2574C66.326 28.143 66.3744 28.0296 66.4209 27.9143C66.4558 27.8232 66.4858 27.7312 66.5178 27.6391C66.5585 27.5228 66.6002 27.4075 66.636 27.2892C66.6651 27.1972 66.6893 27.1042 66.7145 27.0111C66.7465 26.8919 66.7804 26.7737 66.8114 26.6545C66.8327 26.5576 66.8512 26.4675 66.8705 26.3735C66.8948 26.2533 66.919 26.1322 66.9403 26.011C66.9548 25.9141 66.9674 25.824 66.98 25.729C66.9965 25.6069 67.013 25.4848 67.0246 25.3618C67.0343 25.2648 67.0401 25.1747 67.0469 25.0807C67.0546 24.9567 67.0624 24.8336 67.0663 24.7096C67.0663 24.6127 67.0663 24.5225 67.0663 24.4295C67.0663 24.3045 67.0663 24.1804 67.0605 24.0554C67.0605 23.9585 67.0517 23.8703 67.045 23.7773C67.0372 23.6523 67.0275 23.5283 67.0149 23.4032C67.0052 23.3112 66.9946 23.2191 66.982 23.128C66.9655 23.003 66.9471 22.878 66.9258 22.7539C66.9103 22.6628 66.8928 22.5727 66.8744 22.4816C66.8502 22.3576 66.8231 22.2345 66.793 22.1114C66.7717 22.0213 66.7484 21.9322 66.7242 21.844C66.7077 21.782 66.6951 21.7199 66.6767 21.6579C66.6457 21.5513 66.6118 21.4447 66.5798 21.3391C66.5731 21.3207 66.5672 21.3013 66.5614 21.2819C66.5294 21.185 66.4955 21.0939 66.4645 20.9999C66.4529 20.9679 66.4413 20.9359 66.4287 20.903C66.3967 20.8177 66.3618 20.7334 66.3318 20.6491C66.3143 20.6084 66.2969 20.5667 66.2785 20.526C66.2455 20.4495 66.2116 20.3739 66.1816 20.2983C66.1583 20.2479 66.1341 20.2014 66.1099 20.1491C66.0769 20.0822 66.0449 20.0143 66.013 19.9475C65.981 19.8806 65.9509 19.8292 65.9161 19.7711C65.8812 19.7129 65.854 19.6558 65.8192 19.5986C65.7785 19.5269 65.7348 19.4552 65.6922 19.3825C65.666 19.3399 65.6409 19.2963 65.6137 19.2526C65.542 19.1373 65.4684 19.023 65.3918 18.9106C65.5178 18.9958 65.6457 19.0792 65.7794 19.1587C65.8211 19.1848 65.8637 19.2081 65.9054 19.2333C65.9946 19.2856 66.0837 19.3379 66.1728 19.3873L66.323 19.4668C66.4073 19.5114 66.4907 19.556 66.576 19.5976L66.7329 19.6723C66.8182 19.713 66.9035 19.7517 66.9897 19.7895L67.1457 19.8554C67.2339 19.8922 67.3231 19.9271 67.4122 19.9611L67.5624 20.0182C67.6593 20.0521 67.7562 20.0841 67.8531 20.1151C67.8987 20.1297 67.9433 20.1452 67.9888 20.1587C68.0973 20.1926 68.2059 20.2237 68.3154 20.2556L68.4123 20.2837C68.5547 20.3206 68.703 20.3555 68.8435 20.3865H68.8561C69.0847 20.4359 69.3163 20.4727 69.5479 20.5047C69.5935 20.5115 69.6371 20.5183 69.6836 20.5231C69.9074 20.5512 70.1323 20.5706 70.3619 20.5832L70.5063 20.59C70.735 20.5987 70.9637 20.6006 71.1924 20.59H71.3009C71.5432 20.5793 71.7854 20.5628 72.0277 20.5347C72.1556 20.5202 72.2845 20.5028 72.4153 20.4824H72.4308C72.5538 20.463 72.6769 20.4417 72.8 20.4175L72.83 20.4117C72.9482 20.3874 73.0655 20.3613 73.1837 20.3332L73.2263 20.3235C73.3407 20.2954 73.4531 20.2653 73.5655 20.2333L73.6217 20.2179C73.7293 20.1859 73.8378 20.1529 73.9444 20.1209L74.0151 20.0967C74.1178 20.0631 74.2196 20.0273 74.3204 19.9891L74.4056 19.9572C74.5025 19.9194 74.5994 19.8816 74.6964 19.8409L74.7933 19.7982C74.8843 19.7595 74.9744 19.7188 75.0636 19.6761L75.175 19.6228C75.2593 19.5812 75.3446 19.5395 75.4279 19.4959L75.553 19.4281C75.6314 19.3854 75.709 19.3428 75.7875 19.2982L75.9241 19.2158C75.9968 19.1722 76.0685 19.1286 76.1402 19.0831C76.1906 19.0511 76.2371 19.0172 76.2894 18.9862C76.3553 18.9416 76.4222 18.898 76.4832 18.8524C76.5443 18.8069 76.5918 18.7739 76.646 18.7342C76.7003 18.6944 76.7652 18.6479 76.8233 18.6043L77.0007 18.4619C77.052 18.4202 77.1044 18.3795 77.1557 18.3369C77.2235 18.2807 77.2894 18.2206 77.3563 18.1615C77.397 18.1256 77.4387 18.0907 77.4794 18.0529C77.586 17.956 77.6906 17.8562 77.7933 17.7535C79.6229 15.9239 80.6508 13.4424 80.6509 10.8549C80.651 8.26742 79.6233 5.78587 77.7938 3.95617C75.9644 2.12646 73.483 1.09848 70.8957 1.09839C68.3084 1.0983 65.827 2.1261 63.9974 3.95567C63.8947 4.05839 63.7939 4.16402 63.697 4.27062C63.6592 4.31035 63.6243 4.35299 63.5875 4.3937C63.5294 4.46056 63.4702 4.52647 63.4131 4.5943C63.3695 4.64566 63.3288 4.69798 63.2871 4.75031C63.2454 4.80264 63.1902 4.86661 63.1476 4.92572C63.1049 4.98484 63.0584 5.0459 63.0138 5.10695C62.9693 5.168 62.9363 5.21257 62.8985 5.26587C62.8607 5.31917 62.8074 5.39961 62.7629 5.46745C62.7309 5.5159 62.6979 5.56435 62.666 5.61184C62.6194 5.68452 62.5749 5.75914 62.5303 5.83279C62.5041 5.87737 62.477 5.92 62.4508 5.96458C62.4053 6.04404 62.3617 6.12447 62.3181 6.20491C62.2968 6.24367 62.2745 6.2834 62.2541 6.3241C62.2086 6.40938 62.166 6.49661 62.1243 6.58189C62.1068 6.61678 62.0894 6.65262 62.0729 6.68751C62.0293 6.78442 61.9876 6.87164 61.9479 6.96468C61.9343 6.99472 61.9218 7.02475 61.9082 7.05576C61.8675 7.15267 61.8278 7.24958 61.79 7.34649C61.7803 7.37265 61.7696 7.39688 61.7609 7.42208C61.7221 7.52674 61.6843 7.6314 61.6495 7.73703L61.6291 7.7981C61.5933 7.9076 61.5593 8.01904 61.5264 8.12951C61.5264 8.14502 61.5177 8.16052 61.5138 8.17603C61.4808 8.29232 61.4498 8.40862 61.4217 8.52491C61.4217 8.53557 61.4159 8.54621 61.414 8.5559C61.3839 8.67801 61.3578 8.80011 61.3336 8.92319V8.93871C61.3084 9.06566 61.2851 9.19357 61.2657 9.32149C61.2454 9.45135 61.227 9.58314 61.2124 9.70912V9.72559C61.1853 9.96399 61.1688 10.2014 61.1582 10.4408C61.1582 10.4776 61.1582 10.5154 61.1582 10.5522C61.1504 10.7838 61.1523 11.0154 61.1582 11.247C61.1582 11.2877 61.1582 11.3285 61.164 11.3692C61.1766 11.6027 61.196 11.8353 61.225 12.0659C61.225 12.0989 61.2347 12.1308 61.2386 12.1628C61.2715 12.4061 61.3113 12.6474 61.3626 12.8887C61.3936 13.0321 61.4276 13.1746 61.4595 13.317C61.4692 13.3509 61.4799 13.3858 61.4886 13.4197C61.5186 13.5283 61.5496 13.6368 61.5855 13.7444C61.6 13.789 61.6146 13.8345 61.6301 13.8791C61.6611 13.976 61.6931 14.0729 61.727 14.1698C61.7454 14.2202 61.7638 14.2667 61.7832 14.32C61.8171 14.4092 61.853 14.4983 61.8898 14.5875C61.9111 14.6388 61.9324 14.6912 61.9557 14.7425C61.9935 14.8298 62.0322 14.915 62.0729 15.0003C62.0971 15.0526 62.1214 15.105 62.1466 15.1563C62.1892 15.2416 62.2338 15.3269 62.2784 15.4112C62.3045 15.4606 62.3297 15.5081 62.3568 15.5595C62.4063 15.6496 62.4596 15.7387 62.5129 15.8269C62.5371 15.8696 62.5613 15.9112 62.5865 15.9529C62.666 16.0821 62.7486 16.2113 62.8346 16.3406C62.7212 16.263 62.6078 16.1894 62.4915 16.1177C62.4489 16.0905 62.4043 16.0653 62.3607 16.0392C62.289 15.9965 62.2183 15.9529 62.1466 15.9122L61.9721 15.8153C61.914 15.7833 61.8559 15.7514 61.7977 15.7184C61.7396 15.6855 61.663 15.6506 61.5942 15.6215C61.5458 15.5982 61.4973 15.573 61.446 15.5508C61.3704 15.5159 61.2948 15.4819 61.2192 15.449L61.0952 15.3967C61.0112 15.3618 60.9269 15.3279 60.8423 15.2949C60.8103 15.2833 60.7783 15.2707 60.7454 15.26C60.6485 15.2242 60.5583 15.1912 60.4644 15.1631L60.4033 15.1428C60.2986 15.1088 60.193 15.0749 60.0874 15.0458C60.0244 15.0274 59.9614 15.0139 59.8984 14.9974C59.8103 14.9741 59.723 14.9509 59.6349 14.9296C59.5099 14.8995 59.3849 14.8724 59.2599 14.8472C59.1707 14.8288 59.0816 14.8123 58.9914 14.7968C58.8664 14.7755 58.7405 14.7571 58.6145 14.7406C58.5244 14.729 58.4333 14.7173 58.3422 14.7076C58.2172 14.695 58.0922 14.6854 57.9662 14.6776C57.8693 14.6708 57.7811 14.665 57.6891 14.6621C57.5641 14.6572 57.44 14.6573 57.315 14.6573C57.2181 14.6573 57.128 14.6573 57.035 14.6573C56.911 14.6573 56.7879 14.6689 56.6639 14.6776C56.567 14.6834 56.4768 14.6902 56.3828 14.6989C56.2598 14.7106 56.1377 14.727 56.0146 14.7445C55.9177 14.7571 55.8276 14.7687 55.7326 14.7842C55.6125 14.8045 55.4913 14.8297 55.3712 14.854C55.2743 14.8724 55.1842 14.8908 55.0902 14.9131C54.971 14.9412 54.8528 14.9741 54.7336 15.01C54.6415 15.0352 54.5485 15.0594 54.4555 15.0875C54.3382 15.1234 54.2219 15.166 54.1056 15.2067C54.0146 15.2387 53.9225 15.2688 53.8324 15.3036C53.7161 15.3482 53.6018 15.4005 53.4884 15.4471C53.3983 15.4858 53.3091 15.5217 53.2209 15.5624C53.1066 15.6157 52.9951 15.6748 52.8827 15.7329C52.7965 15.7765 52.7103 15.8173 52.6259 15.8647C52.5126 15.9268 52.4021 15.9965 52.2907 16.0634C52.2093 16.1128 52.1279 16.1603 52.0484 16.2107C51.9341 16.2843 51.8236 16.3648 51.7122 16.4443C51.6375 16.4956 51.562 16.5411 51.4903 16.5993C51.3701 16.6904 51.2528 16.7931 51.1346 16.89C51.0755 16.9385 51.0135 16.9869 50.9544 17.0354C50.78 17.1866 50.6097 17.3452 50.4437 17.5112L45.43 22.5252L2.09543 65.8636C0.770706 67.1958 0.0270996 68.9983 0.0270996 70.8771C0.0270996 72.756 0.770706 74.5585 2.09543 75.8907L5.86491 79.6604C7.19708 80.9853 8.99942 81.7289 10.8781 81.7289C12.7569 81.7289 14.5592 80.9853 15.8914 79.6604L59.2017 36.3163L64.2154 31.3022C64.3802 31.1365 64.5391 30.966 64.6902 30.7915C64.7397 30.7324 64.7852 30.6713 64.8346 30.6113Z" fill="#CD2B92"/>
<path d="M36.1633 70.3902C36.0664 70.5065 35.9695 70.6237 35.8726 70.7439C35.8174 70.8166 35.7689 70.8922 35.7176 70.9658C35.6371 71.0773 35.5567 71.1877 35.484 71.3021C35.4317 71.3825 35.3871 71.4639 35.3367 71.5453C35.2689 71.6568 35.2001 71.7673 35.1371 71.8807C35.0906 71.965 35.049 72.0522 35.0053 72.1375C34.9472 72.2499 34.8881 72.3613 34.8348 72.4757C34.7941 72.5639 34.7573 72.654 34.7195 72.7441C34.671 72.8575 34.6226 72.9718 34.5761 73.0872C34.5412 73.1773 34.5121 73.2703 34.4792 73.3614C34.4394 73.4777 34.3978 73.593 34.3619 73.7103C34.3328 73.8072 34.3086 73.8963 34.2834 73.9903C34.2514 74.1086 34.2175 74.2268 34.1865 74.346C34.1642 74.4429 34.1468 74.5331 34.1274 74.6271C34.1022 74.7472 34.079 74.8674 34.0576 74.9895C34.0421 75.0864 34.0305 75.1765 34.0179 75.2715C34.0014 75.3926 33.985 75.5147 33.9733 75.6388C33.9636 75.7357 33.9578 75.8258 33.9511 75.9198C33.9433 76.0429 33.9346 76.1679 33.9307 76.2919C33.9307 76.3888 33.9307 76.478 33.9307 76.571C33.9307 76.696 33.9307 76.8201 33.9307 76.9451C33.9307 77.042 33.9404 77.1302 33.9462 77.2232C33.9549 77.3482 33.9636 77.4732 33.9772 77.5973C33.9869 77.6893 33.9985 77.7814 34.0102 77.8735C34.0257 77.9975 34.045 78.1225 34.0664 78.2465C34.0819 78.3367 34.0993 78.4278 34.1168 78.5189C34.1419 78.6429 34.1691 78.766 34.1981 78.8891C34.2204 78.9792 34.2427 79.0683 34.2679 79.1565C34.2844 79.2185 34.297 79.2815 34.3154 79.3416C34.3464 79.4492 34.3803 79.5548 34.4123 79.6614C34.4191 79.6808 34.4239 79.6992 34.4307 79.7176C34.4627 79.8145 34.4966 79.9114 34.5276 80.0006C34.5392 80.0326 34.5509 80.0645 34.5635 80.0975C34.5954 80.1828 34.6303 80.2671 34.6604 80.3514C34.6778 80.3921 34.6953 80.4338 34.7137 80.4745C34.7466 80.5501 34.7805 80.6266 34.8106 80.7022C34.8348 80.7516 34.8581 80.7991 34.8823 80.8515C34.9152 80.9183 34.9472 80.9852 34.9792 81.053C35.0112 81.1208 35.0412 81.1703 35.0761 81.2294C35.111 81.2885 35.1381 81.3447 35.173 81.4019C35.2147 81.4746 35.2583 81.5463 35.3009 81.617C35.3261 81.661 35.3523 81.7046 35.3794 81.7479C35.4501 81.8632 35.5247 81.9775 35.6013 82.0899C35.4721 82.004 35.3429 81.9213 35.2137 81.8418C35.173 81.8167 35.1304 81.7934 35.0887 81.7682C34.9995 81.7159 34.9104 81.6626 34.8212 81.6132C34.7718 81.586 34.7243 81.5599 34.671 81.5337C34.5877 81.4891 34.5024 81.4445 34.4181 81.4029L34.2611 81.3283C34.1759 81.2885 34.0916 81.2488 34.0043 81.211L33.8483 81.1451C33.7602 81.1083 33.671 81.0734 33.5819 81.0395C33.5315 81.0191 33.485 81.0007 33.4317 80.9832C33.3348 80.9484 33.2379 80.9164 33.141 80.8863L33.0072 80.8427C32.8977 80.8088 32.7892 80.7778 32.6797 80.7458L32.5828 80.7177C32.4404 80.6809 32.2921 80.646 32.1516 80.615H32.139C31.9093 80.5656 31.6787 80.5287 31.4471 80.4968L31.3124 80.4774C31.0876 80.4502 30.8637 80.4309 30.6341 80.4183L30.4897 80.4115C30.261 80.4028 30.0323 80.4008 29.8036 80.4115H29.6961C29.4529 80.4222 29.2116 80.4386 28.9683 80.4667C28.8395 80.4822 28.7125 80.4997 28.5807 80.5191H28.5652C28.4412 80.5384 28.3181 80.5617 28.1951 80.585L28.166 80.5908C28.0478 80.615 27.9296 80.6402 27.8123 80.6692L27.7697 80.6799C27.6553 80.7071 27.5429 80.7371 27.4305 80.7691L27.3743 80.7846C27.2658 80.8156 27.1582 80.8495 27.0516 80.8815L26.9809 80.9048C26.884 80.9396 26.7764 80.9755 26.6756 81.0133L26.5904 81.0453C26.4948 81.0821 26.3979 81.1208 26.2997 81.1615L26.2028 81.2042C26.1126 81.2429 26.0216 81.2837 25.9314 81.3263L25.821 81.3796C25.7357 81.4213 25.6514 81.4629 25.5681 81.5065L25.4431 81.5744C25.3646 81.617 25.2861 81.6597 25.2085 81.7042L25.0719 81.7866C24.9992 81.8302 24.9266 81.8739 24.8549 81.9194L24.7076 82.0163C24.6407 82.0609 24.5738 82.1045 24.5138 82.15C24.4537 82.1956 24.4052 82.2285 24.351 82.2682C24.2967 82.308 24.2327 82.3545 24.1736 82.3991C24.1145 82.4436 24.0554 82.496 23.9963 82.5406C23.9372 82.5851 23.8916 82.622 23.8413 82.6656C23.7734 82.7218 23.7066 82.7819 23.6407 82.841C23.6 82.8768 23.5583 82.9117 23.5176 82.9485C23.411 83.0454 23.3064 83.1424 23.2036 83.249C21.3741 85.0785 20.3462 87.56 20.3461 90.1475C20.346 92.735 21.3737 95.2166 23.2032 97.0463C25.0326 98.876 27.5139 99.9039 30.1013 99.904C32.6886 99.9041 35.17 98.8763 36.9996 97.0467C37.1023 96.944 37.2021 96.8384 37.301 96.7318C37.3378 96.6911 37.3717 96.6494 37.4095 96.6087C37.4667 96.5418 37.5267 96.476 37.5839 96.4091C37.6411 96.3423 37.6672 96.3045 37.7099 96.2521C37.7525 96.1998 37.8068 96.1358 37.8494 96.0757C37.8921 96.0156 37.9386 95.9565 37.9831 95.8955C38.0277 95.8344 38.0607 95.7899 38.0985 95.7375C38.1362 95.6852 38.1895 95.6028 38.2341 95.535C38.2661 95.4866 38.299 95.4381 38.331 95.3906C38.3775 95.3169 38.4221 95.2433 38.4667 95.1697L38.5452 95.0369C38.5917 94.9584 38.6353 94.8779 38.6789 94.7975C38.7002 94.7578 38.7225 94.718 38.7429 94.6783C38.7884 94.5921 38.831 94.5058 38.8727 94.4196C38.8892 94.3847 38.9076 94.3508 38.9241 94.3159C38.9677 94.219 39.0084 94.1308 39.0491 94.0378C39.0626 94.0077 39.0752 93.9777 39.0878 93.9467C39.1295 93.8498 39.1692 93.7528 39.207 93.6511C39.2167 93.6249 39.2264 93.6007 39.2361 93.5755C39.2748 93.4708 39.3117 93.3662 39.3475 93.2606C39.3543 93.2402 39.3601 93.2199 39.3669 93.1995C39.4037 93.089 39.4376 92.9795 39.4696 92.8681C39.4696 92.8526 39.4793 92.8371 39.4832 92.8216C39.5161 92.7053 39.5471 92.589 39.5801 92.4727C39.5801 92.462 39.5801 92.4514 39.5878 92.4407C39.6169 92.3196 39.644 92.1975 39.6683 92.0744V92.0598C39.6935 91.931 39.7167 91.804 39.7371 91.6722C39.7574 91.5404 39.7758 91.4096 39.7904 91.2778V91.2613C39.8175 91.0249 39.834 90.7855 39.8437 90.5471C39.8437 90.5103 39.8437 90.4725 39.8437 90.4366C39.8514 90.205 39.8495 89.9725 39.8437 89.7418C39.8437 89.7001 39.8437 89.6594 39.8369 89.6187C39.8253 89.3862 39.8049 89.1526 39.7768 88.922C39.7768 88.889 39.7671 88.857 39.7632 88.8251C39.7293 88.5818 39.6896 88.3405 39.6382 88.0992C39.6072 87.9558 39.5733 87.8133 39.5355 87.6709C39.5268 87.636 39.5161 87.6021 39.5074 87.5682C39.4774 87.4596 39.4464 87.3511 39.4105 87.2435C39.3969 87.199 39.3824 87.1534 39.3669 87.1088C39.3349 87.0119 39.303 86.915 39.27 86.8181C39.2516 86.7687 39.2322 86.7212 39.2128 86.6689C39.1789 86.5797 39.144 86.4896 39.1072 86.4014C39.0859 86.3491 39.0646 86.2977 39.0413 86.2454C39.0035 86.1601 38.9638 86.0738 38.9241 85.9886C38.8998 85.9362 38.8756 85.8839 38.8504 85.8335C38.8078 85.7472 38.7632 85.663 38.7196 85.5777C38.6925 85.5283 38.6673 85.4808 38.6401 85.4304C38.5898 85.3393 38.5374 85.2511 38.4841 85.1609C38.4599 85.1203 38.4357 85.0776 38.4114 85.0359C38.331 84.9071 38.2487 84.7782 38.1634 84.6483C38.2758 84.7249 38.3892 84.7995 38.5054 84.8712C38.5491 84.8984 38.5927 84.9236 38.6363 84.9497C38.708 84.9933 38.7787 85.035 38.8504 85.0766L39.0239 85.1735L39.1993 85.2704L39.4018 85.3674L39.55 85.4381C39.6256 85.473 39.7022 85.5069 39.7778 85.5399L39.9018 85.5922C39.9861 85.6271 40.0704 85.662 40.1547 85.6891L40.2516 85.724C40.3485 85.7589 40.4386 85.7928 40.5326 85.8209L40.5947 85.8422C40.6993 85.8762 40.804 85.9101 40.9096 85.9392C40.9726 85.9576 41.0365 85.9702 41.1034 85.9876C41.1906 86.0109 41.2788 86.0341 41.367 86.0554C41.491 86.0855 41.616 86.1116 41.741 86.1378C41.8311 86.1552 41.9203 86.1727 42.0104 86.1882C42.1354 86.2095 42.2604 86.2279 42.3864 86.2444C42.4775 86.257 42.5685 86.2676 42.6596 86.2773C42.7846 86.2899 42.9096 86.2996 43.0356 86.3074C43.1277 86.3142 43.2207 86.32 43.3128 86.3229C43.4378 86.3229 43.5618 86.3277 43.6858 86.3277C43.7827 86.3277 43.8728 86.3277 43.9668 86.3277C44.0899 86.3277 44.2139 86.3161 44.338 86.3074L44.619 86.287C44.7421 86.2744 44.8642 86.2579 44.9863 86.2415C45.0832 86.2279 45.1742 86.2163 45.2682 86.2008C45.3894 86.1804 45.5095 86.1562 45.6306 86.132C45.7275 86.1116 45.8177 86.0942 45.9107 86.0729C46.0309 86.0438 46.1491 86.0109 46.2673 85.976C46.3642 85.9508 46.4533 85.9255 46.5454 85.8984C46.6627 85.8616 46.7799 85.8199 46.8962 85.7792C46.9873 85.7472 47.0793 85.7172 47.1694 85.6823C47.2848 85.6377 47.3991 85.5854 47.5135 85.5389C47.6026 85.5011 47.6927 85.4643 47.7799 85.4236C47.8943 85.3703 48.0057 85.3112 48.1191 85.254C48.2044 85.2094 48.2906 85.1678 48.3759 85.1213C48.4893 85.0583 48.5997 84.9894 48.7112 84.9216C48.7916 84.8732 48.874 84.8247 48.9534 84.7753C49.0678 84.7016 49.1782 84.6212 49.2897 84.5427C49.3633 84.4894 49.4389 84.4458 49.5116 84.3867C49.6317 84.2956 49.749 84.1977 49.8662 84.1008C49.9263 84.0514 49.9883 84.0039 50.0474 83.9545C50.2209 83.8033 50.3914 83.6453 50.5581 83.4786L55.5709 78.4646L98.9316 35.1437C100.256 33.8113 101 32.0087 101 30.1297C101 28.2507 100.256 26.448 98.9316 25.1156L95.1621 21.3459C93.8298 20.0213 92.0275 19.2778 90.1489 19.2778C88.2702 19.2778 86.4679 20.0213 85.1357 21.3459L41.7982 64.6843L36.7845 69.6983C36.6188 69.864 36.4598 70.0346 36.3096 70.209C36.2583 70.2681 36.2118 70.3301 36.1633 70.3902Z" fill="#CD2B92"/>
<path d="M39.9182 55.5988L31.2174 64.3002L36.7001 69.7823L50.4961 55.9855L45.0114 50.4995C44.9833 50.5276 44.9591 50.5577 44.9319 50.5848L39.9182 55.5988Z" fill="url(#paint0_linear_2878_112828)"/>
<path d="M30.7911 36.3093C30.7329 36.2589 30.6719 36.2124 30.6118 36.163C30.4936 36.066 30.3773 35.9691 30.2562 35.8771C30.1835 35.8228 30.1089 35.7734 30.0343 35.722C29.9228 35.6426 29.8124 35.5621 29.698 35.4875C29.6186 35.4361 29.5362 35.3906 29.4558 35.3412C29.3443 35.2733 29.2339 35.2055 29.1205 35.1474C29.0362 35.1008 28.949 35.0592 28.8637 35.0146C28.7503 34.9564 28.6389 34.8973 28.5255 34.845C28.4364 34.8033 28.3462 34.7675 28.2571 34.7287C28.1427 34.6803 28.0303 34.6318 27.9141 34.5853C27.823 34.5514 27.7309 34.5213 27.6398 34.4884C27.5235 34.4477 27.4073 34.407 27.29 34.3702C27.1931 34.3411 27.1049 34.3178 27.0119 34.2917C26.8927 34.2597 26.7745 34.2258 26.6553 34.1947C26.5584 34.1725 26.4673 34.155 26.3733 34.1347C26.2541 34.1104 26.133 34.0862 26.0119 34.0658C25.915 34.0503 25.8248 34.0378 25.7299 34.0252C25.6078 34.0087 25.4857 33.9922 25.3626 33.9806C25.2657 33.9709 25.1756 33.9651 25.0816 33.9593C24.9576 33.9505 24.8345 33.9428 24.7105 33.9389C24.6136 33.9389 24.5235 33.9389 24.4295 33.9389C24.3054 33.9389 24.1804 33.9389 24.0564 33.9389C23.9595 33.9389 23.8703 33.9476 23.7773 33.9544C23.6523 33.9622 23.5283 33.9719 23.4033 33.9845C23.3064 33.9942 23.2201 34.0058 23.1281 34.0174C23.0031 34.0339 22.879 34.0523 22.755 34.0746C22.6639 34.0901 22.5728 34.1066 22.4827 34.125C22.3587 34.1492 22.2346 34.1773 22.1116 34.2064C22.0224 34.2277 21.9333 34.251 21.8441 34.2752C21.7821 34.2926 21.7201 34.3043 21.659 34.3236C21.5515 34.3546 21.4458 34.3876 21.3402 34.4205L21.283 34.439C21.1861 34.4709 21.0951 34.5049 21.0001 34.5359L20.9032 34.5717L20.6503 34.6686L20.5262 34.7209C20.4507 34.7539 20.3751 34.7862 20.2995 34.8179L20.1503 34.8886C20.0824 34.9215 20.0156 34.9535 19.9477 34.9855L19.7723 35.0824L19.5999 35.1793C19.5272 35.22 19.4555 35.2636 19.3838 35.3063C19.3402 35.3324 19.2966 35.3576 19.2539 35.3848C19.1386 35.4565 19.0243 35.5301 18.9109 35.6077C18.9968 35.4785 19.0795 35.3493 19.159 35.22C19.1851 35.1784 19.2094 35.1357 19.2336 35.0941C19.2869 35.0059 19.3392 34.9167 19.3886 34.8266C19.4158 34.7772 19.4419 34.7297 19.4681 34.6773C19.5126 34.593 19.5563 34.5087 19.5989 34.4235L19.6735 34.2665C19.7132 34.1812 19.753 34.0959 19.7898 34.0097C19.8121 33.9583 19.8344 33.9069 19.8567 33.8536C19.8935 33.7654 19.9284 33.6763 19.9623 33.5871C19.9817 33.5367 20.0001 33.4902 20.0185 33.4369C20.0534 33.34 20.0853 33.2431 20.1154 33.1462C20.1299 33.1016 20.1454 33.0561 20.16 33.0105C20.1929 32.903 20.2239 32.7944 20.2569 32.6849C20.2665 32.651 20.2772 32.618 20.285 32.588C20.3228 32.4455 20.3576 32.2973 20.3886 32.1568V32.1451C20.4371 31.9155 20.4749 31.6848 20.5069 31.4532C20.5127 31.4077 20.5195 31.3631 20.5253 31.3175C20.5534 31.0937 20.5728 30.8679 20.5844 30.6392C20.5844 30.5917 20.5844 30.5423 20.5912 30.4948C20.6009 30.2661 20.6018 30.0383 20.5912 29.8087C20.5912 29.7728 20.5912 29.737 20.5912 29.7011C20.5815 29.4579 20.565 29.2166 20.5359 28.9743C20.5224 28.8464 20.504 28.7175 20.4846 28.5867V28.5712C20.4639 28.4484 20.4416 28.3253 20.4177 28.2019C20.4177 28.1922 20.4177 28.1826 20.4119 28.1729C20.3886 28.0537 20.3625 27.9364 20.3334 27.8182L20.3247 27.7755C20.2966 27.6622 20.2665 27.5497 20.2346 27.4364C20.2288 27.4179 20.2239 27.3995 20.2181 27.3801C20.1871 27.2726 20.1541 27.165 20.1212 27.0575C20.1144 27.0342 20.1057 27.0109 20.0979 26.9867C20.0637 26.8853 20.0278 26.7835 19.9904 26.6814C19.9797 26.6533 19.9681 26.6252 19.9584 26.5971C19.9206 26.5002 19.8828 26.4033 19.8421 26.3064C19.8285 26.2744 19.813 26.2415 19.7995 26.2095C19.7607 26.1194 19.72 26.0283 19.6774 25.9391C19.6599 25.9013 19.6415 25.8645 19.6231 25.8277C19.5824 25.7434 19.5408 25.6581 19.4962 25.5748L19.4293 25.4497C19.3867 25.3722 19.344 25.2937 19.2995 25.2162C19.2723 25.1707 19.2442 25.1251 19.2161 25.0795C19.1725 25.0059 19.1299 24.9342 19.0834 24.8625C19.0524 24.813 19.0184 24.7656 18.9865 24.7142C18.9429 24.6473 18.8993 24.5805 18.8527 24.5204C18.8062 24.4603 18.7743 24.4119 18.7355 24.3586C18.6967 24.3053 18.6493 24.2393 18.6047 24.1802C18.5601 24.1211 18.5078 24.063 18.4632 24.0029C18.4186 23.9428 18.3808 23.8992 18.3382 23.8488C18.281 23.78 18.2209 23.7141 18.1628 23.6472C18.127 23.6065 18.0921 23.5649 18.0543 23.5242C17.9574 23.4186 17.8605 23.3129 17.7539 23.2102C16.848 22.3043 15.7726 21.5857 14.5891 21.0954C13.4055 20.6051 12.137 20.3528 10.8559 20.3528C9.57484 20.3528 8.30631 20.6051 7.12276 21.0954C5.9392 21.5857 4.8638 22.3043 3.95794 23.2102C3.05209 24.1161 2.33352 25.1916 1.84328 26.3752C1.35303 27.5589 1.10071 28.8274 1.10071 30.1086C1.10071 31.3898 1.35303 32.6584 1.84328 33.842C2.33352 35.0256 3.05209 36.1011 3.95794 37.007C4.06066 37.1097 4.16531 37.2102 4.27191 37.3084C4.31261 37.3452 4.35428 37.3801 4.39594 37.4169C4.46184 37.4751 4.52772 37.5352 4.59556 37.5914C4.64691 37.635 4.70021 37.6757 4.75254 37.7183C4.80486 37.761 4.86882 37.8152 4.92793 37.8579C4.98705 37.9005 5.04809 37.9461 5.10914 37.9906C5.17019 38.0352 5.2138 38.0691 5.26709 38.106C5.32039 38.1428 5.40178 38.198 5.46961 38.2426L5.614 38.3395C5.68667 38.387 5.76129 38.4316 5.83494 38.4752L5.96672 38.5546C6.04618 38.6002 6.12564 38.6438 6.20607 38.6874C6.24612 38.7094 6.28585 38.7307 6.32525 38.7514C6.4115 38.7969 6.49774 38.8396 6.58399 38.8822L6.68864 38.9326C6.78554 38.9762 6.87372 39.0179 6.96674 39.0576L7.05687 39.0973C7.15377 39.138 7.25067 39.1778 7.35338 39.2156C7.37858 39.2265 7.40377 39.2362 7.42897 39.2446C7.53362 39.2844 7.63828 39.3212 7.7439 39.357L7.80398 39.3764C7.91445 39.4132 8.02492 39.4472 8.13636 39.4792L8.18287 39.4927C8.29915 39.5257 8.41543 39.5557 8.53171 39.5838C8.54184 39.5872 8.55221 39.5898 8.56273 39.5916C8.68483 39.6213 8.80691 39.6484 8.92901 39.673H8.94549C9.07243 39.6982 9.19937 39.7214 9.3331 39.7418C9.46488 39.7621 9.59571 39.7796 9.72652 39.7951H9.74299C9.9804 39.8232 10.2188 39.8397 10.4572 39.8493L10.5686 39.8542C10.8002 39.861 11.0328 39.8542 11.2634 39.8493C11.3051 39.8493 11.3458 39.8493 11.3865 39.8435C11.619 39.8319 11.8513 39.8115 12.0832 39.7825L12.1801 39.7699C12.4223 39.736 12.6646 39.6962 12.9059 39.6458C13.0493 39.6139 13.1966 39.5799 13.3352 39.5431L13.4379 39.5141C13.5454 39.485 13.654 39.454 13.7615 39.4171C13.8071 39.4036 13.8516 39.3881 13.8972 39.3735C13.9941 39.3415 14.091 39.3096 14.1879 39.2766L14.3371 39.2204C14.4272 39.1855 14.5164 39.1506 14.6055 39.1138L14.7606 39.0479C14.8468 39.0092 14.9331 38.9704 15.0183 38.9297C15.0697 38.9064 15.122 38.8812 15.1744 38.856C15.2596 38.8144 15.3449 38.7698 15.4292 38.7242C15.4777 38.6981 15.5261 38.6738 15.5765 38.6457C15.6666 38.5963 15.7558 38.543 15.8449 38.4907L15.9709 38.417C16.1001 38.3376 16.2293 38.2549 16.3585 38.169C16.2819 38.2814 16.2083 38.3957 16.1366 38.511C16.1094 38.5546 16.0833 38.5982 16.0571 38.6428C16.0155 38.7136 15.9718 38.7843 15.9311 38.857C15.8982 38.9142 15.8682 38.9723 15.8342 39.0305C15.8003 39.0886 15.7713 39.1468 15.7373 39.2059C15.7034 39.265 15.6705 39.3406 15.6404 39.4084C15.6162 39.4569 15.592 39.5053 15.5697 39.5567C15.5348 39.6323 15.5009 39.7078 15.467 39.7844C15.4496 39.8251 15.4321 39.8668 15.4156 39.9075C15.3808 39.9918 15.3468 40.0761 15.3187 40.1614C15.3071 40.1924 15.2945 40.2244 15.2829 40.2583C15.248 40.3552 15.215 40.4453 15.186 40.5393C15.1782 40.5597 15.1724 40.581 15.1656 40.6014C15.1307 40.706 15.0978 40.8107 15.0687 40.9163C15.0503 40.9793 15.0368 41.0423 15.0203 41.1101C14.9961 41.1973 14.9738 41.2846 14.9515 41.3727C14.9214 41.4978 14.8953 41.6228 14.8701 41.7478C14.8517 41.8369 14.8352 41.9271 14.8197 42.0172C14.7974 42.1422 14.78 42.2672 14.7635 42.3932C14.7509 42.4843 14.7402 42.5744 14.7305 42.6665C14.717 42.7915 14.7083 42.9165 14.7005 43.0415C14.6937 43.1384 14.6879 43.2266 14.685 43.3196C14.685 43.4437 14.685 43.5677 14.685 43.6927C14.685 43.7896 14.685 43.8797 14.685 43.9728C14.685 44.0968 14.6966 44.2209 14.7044 44.3439C14.7112 44.4409 14.717 44.532 14.7267 44.626C14.7393 44.7481 14.7548 44.8711 14.7712 44.9923C14.7838 45.0892 14.7964 45.1861 14.811 45.2752C14.8313 45.3964 14.8565 45.5165 14.8817 45.6367C14.9001 45.7336 14.9185 45.8237 14.9408 45.9177C14.9679 46.0379 15.0019 46.1561 15.0377 46.2743C15.0629 46.3713 15.0871 46.4595 15.1152 46.5525C15.1521 46.6697 15.1937 46.787 15.2335 46.9033C15.2654 46.9944 15.2955 47.0855 15.3304 47.1766C15.3749 47.2919 15.4273 47.4062 15.4738 47.5206C15.5116 47.6098 15.5484 47.6989 15.5881 47.7871C15.6424 47.9015 15.7015 48.0129 15.7587 48.1253C15.8032 48.2116 15.8439 48.2978 15.8914 48.3831C15.9534 48.4955 16.0232 48.606 16.0852 48.7174C16.1347 48.7988 16.1821 48.8812 16.2316 48.9607C16.3062 49.075 16.3856 49.1855 16.4651 49.2969C16.5174 49.3706 16.562 49.4462 16.6211 49.5179C16.7112 49.639 16.8149 49.7563 16.9118 49.8735C16.9612 49.9326 17.0087 49.9947 17.0571 50.0538C17.1841 50.1991 17.3178 50.3445 17.4545 50.4802L31.2446 36.6882C31.0779 36.569 30.9374 36.4353 30.7911 36.3093Z" fill="url(#paint1_linear_2878_112828)"/>
<path d="M59.2018 36.3161L50.501 45.0175L55.9827 50.4996L69.7796 36.7028L64.294 31.2168C64.2669 31.2449 64.2427 31.2749 64.2155 31.3021L59.2018 36.3161Z" fill="url(#paint2_linear_2878_112828)"/>
<path d="M96.7309 63.6722C96.6912 63.6344 96.6485 63.5996 96.6069 63.5627C96.541 63.5046 96.4741 63.4455 96.4072 63.3883C96.3559 63.3447 96.3026 63.304 96.2503 63.2623C96.1979 63.2206 96.134 63.1654 96.0758 63.1218C96.0177 63.0782 95.9547 63.0327 95.8946 62.989C95.8346 62.9454 95.789 62.9105 95.7357 62.8737C95.6824 62.8369 95.601 62.7768 95.5341 62.7371L95.3888 62.6402C95.3161 62.5927 95.2425 62.5491 95.1679 62.5045L95.0361 62.425C94.9566 62.3785 94.8772 62.3359 94.7967 62.2923L94.6775 62.2273C94.5923 62.1828 94.5051 62.1391 94.4188 62.0975L94.3142 62.0461C94.2221 62.0035 94.13 61.9618 94.037 61.9211L93.9459 61.8823C93.849 61.8407 93.7521 61.8019 93.6552 61.7631C93.6291 61.7544 93.6039 61.7438 93.5796 61.7341C93.475 61.6953 93.3694 61.6585 93.2637 61.6236C93.2444 61.6168 93.224 61.6091 93.2027 61.6033C93.0932 61.5664 92.9827 61.5325 92.8723 61.5005L92.8248 61.487C92.7085 61.454 92.5932 61.423 92.4759 61.3901L92.4449 61.3823C92.3228 61.3532 92.2007 61.3261 92.0786 61.3019H92.0622C91.9352 61.2767 91.8083 61.2534 91.6804 61.2331C91.5495 61.2127 91.4187 61.1943 91.2869 61.1798H91.2705C91.0331 61.1536 90.7947 61.1371 90.5563 61.1264H90.4449C90.2133 61.1187 89.9817 61.1206 89.7501 61.1264L89.627 61.1332C89.3944 61.1458 89.1619 61.1652 88.9303 61.1933L88.8334 61.2079C88.5911 61.2408 88.3489 61.2805 88.1076 61.3319C87.9655 61.3616 87.823 61.3939 87.6802 61.4288C87.6454 61.4375 87.6114 61.4482 87.5766 61.4579C87.469 61.4879 87.3605 61.518 87.2529 61.5548C87.2074 61.5684 87.1628 61.5839 87.1172 61.5984C87.0203 61.6304 86.9234 61.6624 86.8265 61.6953L86.6763 61.7525C86.5872 61.7864 86.498 61.8213 86.4089 61.8581L86.2539 61.924C86.1676 61.9618 86.0814 62.0015 85.9961 62.0413C85.9438 62.0655 85.8924 62.0897 85.8411 62.1159C85.7548 62.1576 85.6705 62.2021 85.5852 62.2477C85.5358 62.2729 85.4883 62.299 85.4379 62.3262C85.3478 62.3756 85.2577 62.4231 85.1695 62.4812C85.1269 62.5055 85.0852 62.5297 85.0445 62.5549C84.9147 62.6343 84.7867 62.7177 84.6569 62.803C84.7335 62.6906 84.8081 62.5762 84.8798 62.4609C84.9069 62.4182 84.9311 62.3737 84.9573 62.3291C84.9999 62.2584 85.0435 62.1876 85.0842 62.1149C85.1172 62.0578 85.1482 61.9996 85.1811 61.9415C85.2141 61.8833 85.2441 61.8242 85.278 61.7661C85.312 61.7079 85.3459 61.6313 85.3749 61.5635C85.3992 61.5141 85.4234 61.4666 85.4457 61.4153C85.4806 61.3397 85.5155 61.2641 85.5426 61.1875C85.56 61.1458 85.5784 61.1051 85.5949 61.0644C85.6298 60.9801 85.6647 60.8958 85.6918 60.8105C85.7044 60.7795 85.716 60.7466 85.7277 60.7136C85.7626 60.6167 85.7955 60.5266 85.8246 60.4326C85.8323 60.4122 85.8381 60.3919 85.8449 60.3706C85.8798 60.2669 85.9128 60.1613 85.9418 60.0556C85.9602 59.9926 85.9738 59.9287 85.9903 59.8666C86.0145 59.7785 86.0368 59.6903 86.0581 59.6031C86.0882 59.478 86.1153 59.353 86.1405 59.228C86.1589 59.1379 86.1754 59.0487 86.1909 58.9586C86.2122 58.8336 86.2306 58.7086 86.248 58.5836C86.2597 58.4925 86.2713 58.4014 86.28 58.3103C86.2926 58.1853 86.3023 58.0593 86.3101 57.9343C86.3168 57.8374 86.3227 57.7482 86.3256 57.6571C86.3256 57.5321 86.3256 57.4071 86.3256 57.2831C86.3256 57.1862 86.3256 57.096 86.3256 57.002C86.3256 56.879 86.3139 56.7549 86.3062 56.6309C86.2994 56.534 86.2936 56.4439 86.2849 56.3508C86.2723 56.2278 86.2558 56.1047 86.2393 55.9826C86.2267 55.8857 86.2151 55.7946 86.1986 55.7015C86.1792 55.5794 86.154 55.4593 86.1298 55.3381C86.1104 55.2412 86.092 55.1511 86.0707 55.0581C86.0416 54.9389 86.0087 54.8197 85.9738 54.7014C85.9476 54.6045 85.9234 54.5154 85.8953 54.4233C85.8595 54.306 85.8168 54.1898 85.7761 54.0735C85.7441 53.9814 85.7141 53.8903 85.6792 53.7992C85.6337 53.6839 85.5823 53.5695 85.5348 53.4552C85.497 53.366 85.4602 53.2769 85.4195 53.1887C85.3662 53.0743 85.3081 52.9629 85.25 52.8495C85.2054 52.7642 85.1647 52.678 85.1172 52.5937C85.0552 52.4793 84.9854 52.3688 84.9234 52.2584C84.874 52.177 84.8265 52.0956 84.7761 52.0152C84.7034 51.9018 84.622 51.7903 84.5435 51.6789C84.4912 51.6052 84.4466 51.5296 84.3875 51.457C84.2964 51.3368 84.1937 51.2195 84.0968 51.1023C84.0474 51.0422 83.9999 50.9811 83.9505 50.922C83.8245 50.7767 83.6908 50.6313 83.5542 50.4966L69.764 64.2876C69.9036 64.4242 70.0441 64.558 70.1894 64.684C70.2485 64.7353 70.3106 64.7809 70.3697 64.8303C70.4879 64.9272 70.6042 65.0241 70.7253 65.121C70.798 65.1743 70.8736 65.2228 70.9462 65.2751C71.0577 65.3546 71.1691 65.435 71.2825 65.5096C71.3629 65.561 71.4453 65.6065 71.5257 65.6559C71.6372 65.7238 71.7476 65.7926 71.861 65.8556C71.9463 65.9021 72.0325 65.9428 72.1178 65.9874C72.2302 66.0446 72.3426 66.1037 72.4569 66.157C72.5451 66.1977 72.6352 66.2345 72.7244 66.2733C72.8378 66.3217 72.9511 66.3702 73.0674 66.4157C73.1575 66.4516 73.2506 66.4816 73.3417 66.5126C73.4579 66.5533 73.5742 66.595 73.6915 66.6299C73.7884 66.6589 73.8775 66.6832 73.9696 66.7084C74.0888 66.7423 74.207 66.7752 74.3262 66.8053C74.4231 66.8266 74.5132 66.845 74.6072 66.8634C74.7283 66.8886 74.8485 66.9138 74.9696 66.9332C75.0665 66.9487 75.1566 66.9613 75.2516 66.9729C75.3737 66.9894 75.4958 67.0068 75.6189 67.0185C75.7158 67.0272 75.8059 67.033 75.8999 67.0398C76.0239 67.0485 76.1479 67.0563 76.271 67.0602C76.3679 67.0602 76.458 67.0602 76.552 67.0602C76.6761 67.0602 76.8001 67.0602 76.9251 67.0553C77.022 67.0553 77.1111 67.0456 77.2032 67.0398C77.3282 67.032 77.4532 67.0224 77.5782 67.0098C77.6751 67.0001 77.7614 66.9884 77.8534 66.9768C77.9774 66.9603 78.1025 66.9419 78.2265 66.9206C78.3176 66.9051 78.4077 66.8876 78.4988 66.8692C78.6228 66.844 78.7459 66.8169 78.8699 66.7878C78.9591 66.7656 79.0482 66.7433 79.1374 66.719C79.1994 66.7026 79.2614 66.689 79.3225 66.6716C79.429 66.6406 79.5356 66.6066 79.6413 66.5747L79.6984 66.5553C79.7953 66.5242 79.8922 66.4894 79.9804 66.4583L80.0773 66.4225C80.1626 66.3896 80.2469 66.3556 80.3312 66.3207L80.4543 66.2684C80.5308 66.2355 80.6064 66.2015 80.682 66.1666C80.7324 66.1444 80.7789 66.1192 80.8312 66.0949C80.8981 66.063 80.9659 66.03 81.0328 65.998C81.0996 65.966 81.151 65.936 81.2091 65.9011L81.3816 65.8042C81.4543 65.7635 81.526 65.7199 81.5977 65.6773L81.7276 65.5997C81.8429 65.5271 81.9582 65.4534 82.0706 65.3759C81.9843 65.5019 81.902 65.6298 81.8216 65.7635C81.7964 65.8052 81.7721 65.8469 81.7479 65.8895C81.6946 65.9787 81.6423 66.0678 81.5929 66.157C81.5657 66.2064 81.5396 66.2539 81.5134 66.3062C81.4688 66.3905 81.4243 66.4748 81.3826 66.5591C81.3574 66.6124 81.3332 66.6648 81.308 66.7171C81.2682 66.8014 81.2285 66.8877 81.1917 66.9729L81.1248 67.129C81.088 67.2181 81.0531 67.3063 81.0192 67.3964L80.962 67.5466C80.9281 67.6435 80.8961 67.7404 80.8651 67.8373C80.8496 67.8819 80.8341 67.9275 80.8206 67.973C80.7866 68.0806 80.7556 68.1901 80.7237 68.2986C80.7149 68.3316 80.7043 68.3655 80.6956 68.3955C80.6587 68.5399 80.6238 68.6863 80.5928 68.8278V68.8404C80.5444 69.0691 80.5066 69.3007 80.4746 69.5323C80.4688 69.5768 80.461 69.6224 80.4562 69.667C80.4281 69.8908 80.4087 70.1157 80.3961 70.3405L80.3903 70.4859C80.3806 70.7136 80.3787 70.9433 80.3903 71.172C80.3903 71.2078 80.3903 71.2437 80.3903 71.2795C80.4 71.5228 80.4165 71.7641 80.4446 72.0063C80.4601 72.1356 80.4775 72.2648 80.4969 72.394V72.4095C80.5163 72.5326 80.5376 72.6556 80.5618 72.7787C80.5647 72.7882 80.5666 72.7979 80.5676 72.8078C80.5922 72.926 80.6184 73.0442 80.6461 73.1625C80.6461 73.177 80.6529 73.1915 80.6568 73.2051C80.6839 73.3185 80.714 73.4319 80.7459 73.5443C80.7459 73.5636 80.7566 73.5811 80.7614 73.6005C80.7934 73.708 80.8264 73.8166 80.8583 73.9232C80.8661 73.9464 80.8739 73.9697 80.8826 73.993C80.9165 74.0957 80.9523 74.1974 80.9901 74.2992C81.0018 74.3273 81.0115 74.3554 81.0221 74.3845C81.0599 74.4814 81.0977 74.5783 81.1384 74.6752C81.152 74.7082 81.1665 74.7411 81.181 74.7721C81.2198 74.8632 81.2605 74.9524 81.3031 75.0425C81.3206 75.0803 81.339 75.1171 81.3574 75.153C81.3981 75.2382 81.4398 75.3226 81.4834 75.4069L81.5512 75.5319C81.5938 75.6094 81.6365 75.6879 81.682 75.7654C81.7082 75.811 81.7363 75.8575 81.7634 75.903C81.807 75.9757 81.8506 76.0474 81.8971 76.1191C81.9281 76.1695 81.9621 76.216 81.994 76.2674C82.0386 76.3343 82.0822 76.4011 82.1278 76.4612C82.1733 76.5213 82.2072 76.5688 82.246 76.623C82.2847 76.6773 82.3322 76.7422 82.3768 76.8004C82.4214 76.8585 82.4737 76.9196 82.5183 76.9787C82.5629 77.0379 82.6006 77.0824 82.6433 77.1338C82.7005 77.2006 82.7596 77.2675 82.8187 77.3344C82.8545 77.3741 82.8894 77.4168 82.9272 77.4575C83.0241 77.5641 83.121 77.6687 83.2276 77.7714C84.1335 78.6773 85.209 79.3959 86.3926 79.8862C87.5762 80.3764 88.8448 80.6287 90.1259 80.6287C91.407 80.6287 92.6756 80.3763 93.8592 79.8859C95.0427 79.3956 96.1182 78.6769 97.024 77.7709C97.9299 76.865 98.6484 75.7894 99.1386 74.6057C99.6289 73.422 99.8812 72.1534 99.8811 70.8722C99.8811 69.591 99.6287 68.3223 99.1384 67.1387C98.6481 65.955 97.9295 64.8795 97.0235 63.9736C96.935 63.8696 96.8375 63.7691 96.7309 63.6722Z" fill="url(#paint3_linear_2878_112828)"/>
<path d="M36.3164 41.7982L45.0163 50.4996L50.499 45.0175L36.703 31.2207L31.2174 36.7057C31.2455 36.7338 31.2755 36.7571 31.3027 36.7852L36.3164 41.7982Z" fill="url(#paint4_linear_2878_112828)"/>
<path d="M64.6884 30.7915C64.7397 30.7324 64.7853 30.6713 64.8347 30.6113C64.9316 30.494 65.0285 30.3768 65.1254 30.2556C65.1797 30.1839 65.2281 30.1083 65.2804 30.0347C65.3599 29.9232 65.4403 29.8118 65.514 29.6984C65.5653 29.618 65.6109 29.5366 65.6603 29.4552C65.7281 29.3437 65.7969 29.2332 65.8589 29.1199C65.9064 29.0355 65.9471 28.9493 65.9917 28.863C66.0498 28.7506 66.1089 28.6392 66.1622 28.5248C66.2029 28.4357 66.2388 28.3465 66.2776 28.2574C66.326 28.143 66.3745 28.0296 66.421 27.9143C66.4559 27.8232 66.4859 27.7312 66.5179 27.6391C66.5586 27.5228 66.6002 27.4075 66.6361 27.2892C66.6652 27.1972 66.6894 27.1042 66.7146 27.0111C66.7466 26.8919 66.7805 26.7737 66.8115 26.6545C66.8328 26.5576 66.8512 26.4675 66.8706 26.3735C66.8948 26.2533 66.9191 26.1322 66.9404 26.011C66.9549 25.9141 66.9675 25.824 66.9801 25.729C66.9966 25.6069 67.013 25.4848 67.0247 25.3617C67.0344 25.2648 67.0402 25.1747 67.047 25.0807C67.0547 24.9567 67.0625 24.8336 67.0663 24.7096C67.0663 24.6126 67.0663 24.5225 67.0663 24.4295C67.0663 24.3045 67.0663 24.1804 67.0605 24.0554C67.0605 23.9585 67.0518 23.8703 67.045 23.7773C67.0373 23.6523 67.0276 23.5282 67.015 23.4032C67.0053 23.3112 66.9946 23.2191 66.982 23.128C66.9656 23.003 66.9472 22.878 66.9258 22.7539C66.9103 22.6628 66.8929 22.5727 66.8745 22.4816C66.8503 22.3576 66.8231 22.2345 66.7931 22.1114C66.7718 22.0213 66.7485 21.9322 66.7243 21.844C66.7078 21.782 66.6952 21.7199 66.6768 21.6579C66.6458 21.5513 66.6119 21.4447 66.5799 21.3391C66.5731 21.3207 66.5673 21.3013 66.5615 21.2819C66.5295 21.185 66.4956 21.0939 66.4646 20.9999C66.4529 20.9679 66.4413 20.9359 66.4287 20.903C66.3967 20.8177 66.3619 20.7334 66.3318 20.6491C66.3144 20.6084 66.2969 20.5667 66.2785 20.526C66.2456 20.4495 66.2117 20.3739 66.1816 20.2983C66.1584 20.2479 66.1342 20.2014 66.1099 20.149C66.077 20.0822 66.045 20.0143 66.013 19.9475C65.981 19.8806 65.951 19.8292 65.9161 19.7711C65.8812 19.7129 65.8541 19.6558 65.8192 19.5986C65.7785 19.5269 65.7349 19.4552 65.6923 19.3825C65.6661 19.3399 65.6409 19.2963 65.6138 19.2526C65.5421 19.1373 65.4684 19.023 65.3919 18.9106C65.5179 18.9958 65.6458 19.0792 65.7795 19.1586C65.8212 19.1848 65.8638 19.2081 65.9055 19.2333C65.9946 19.2856 66.0838 19.3379 66.1729 19.3873L66.3231 19.4668C66.4074 19.5114 66.4907 19.556 66.576 19.5976L66.733 19.6723C66.8183 19.713 66.9035 19.7517 66.9898 19.7895L67.1458 19.8554C67.234 19.8922 67.3231 19.9271 67.4123 19.9611L67.5625 20.0182C67.6594 20.0521 67.7563 20.0841 67.8532 20.1151C67.8987 20.1297 67.9433 20.1452 67.9889 20.1587C68.0974 20.1926 68.2059 20.2237 68.3154 20.2556L68.4123 20.2837C68.5548 20.3206 68.703 20.3555 68.8435 20.3865H68.8561C69.0848 20.4359 69.3164 20.4727 69.548 20.5047C69.5935 20.5115 69.6372 20.5183 69.6837 20.5231C69.9075 20.5512 70.1323 20.5706 70.362 20.5832L70.5064 20.59C70.7351 20.5987 70.9637 20.6006 71.1924 20.59H71.301C71.5432 20.5793 71.7855 20.5628 72.0277 20.5347C72.1556 20.5202 72.2845 20.5028 72.4153 20.4824H72.4308C72.5539 20.463 72.677 20.4417 72.8 20.4175L72.8301 20.4117C72.9483 20.3874 73.0655 20.3613 73.1838 20.3332L73.2264 20.3235C73.3407 20.2954 73.4532 20.2653 73.5656 20.2333L73.6218 20.2179C73.7293 20.1859 73.8379 20.1529 73.9444 20.1209L74.0152 20.0967C74.1179 20.0631 74.2197 20.0273 74.3204 19.9891L74.4057 19.9572C74.5026 19.9194 74.5995 19.8816 74.6964 19.8409L74.7933 19.7982C74.8844 19.7595 74.9745 19.7188 75.0637 19.6761L75.1751 19.6228C75.2594 19.5812 75.3447 19.5395 75.428 19.4959L75.553 19.4281C75.6315 19.3854 75.709 19.3428 75.7875 19.2982L75.9241 19.2158C75.9968 19.1722 76.0685 19.1286 76.1402 19.0831C76.1906 19.0511 76.2371 19.0172 76.2895 18.9862C76.3554 18.9416 76.4222 18.898 76.4833 18.8524C76.5443 18.8069 76.5918 18.7739 76.6461 18.7342C76.7003 18.6944 76.7653 18.6479 76.8234 18.6043L77.0007 18.4619C77.0521 18.4202 77.1044 18.3795 77.1558 18.3369C77.2236 18.2807 77.2895 18.2206 77.3564 18.1615C77.3971 18.1256 77.4387 18.0907 77.4794 18.0529C77.586 17.956 77.6907 17.8562 77.7934 17.7535C78.6993 16.8476 79.4179 15.7721 79.9082 14.5884C80.3985 13.4048 80.6509 12.1361 80.651 10.8549C80.651 9.57372 80.3987 8.30506 79.9085 7.12137C79.4183 5.93768 78.6997 4.86214 77.7939 3.95617C76.888 3.05019 75.8126 2.33151 74.629 1.84117C73.4455 1.35084 72.1769 1.09843 70.8958 1.09839C69.6147 1.09834 68.3461 1.35066 67.1625 1.84091C65.9788 2.33116 64.9034 3.04976 63.9975 3.95567C63.8947 4.05839 63.794 4.16402 63.6971 4.27062C63.6593 4.31035 63.6244 4.35299 63.5876 4.3937C63.5294 4.46056 63.4703 4.52647 63.4131 4.5943C63.3695 4.64566 63.3288 4.69798 63.2872 4.75031C63.2455 4.80264 63.1903 4.86661 63.1476 4.92572C63.105 4.98484 63.0585 5.0459 63.0139 5.10695C62.9693 5.168 62.9364 5.21257 62.8986 5.26587C62.8608 5.31917 62.8075 5.39961 62.7629 5.46745C62.7309 5.5159 62.698 5.56435 62.666 5.61184C62.6195 5.68452 62.5749 5.75914 62.5304 5.83279C62.5042 5.87737 62.4771 5.92 62.4509 5.96458C62.4054 6.04404 62.3618 6.12447 62.3182 6.20491C62.2968 6.24367 62.2745 6.2834 62.2542 6.3241C62.2086 6.40938 62.166 6.49661 62.1243 6.58189C62.1069 6.61678 62.0895 6.65262 62.073 6.68751C62.0294 6.78442 61.9877 6.87164 61.948 6.96467C61.9344 6.99472 61.9218 7.02475 61.9083 7.05576C61.8676 7.15267 61.8278 7.24958 61.79 7.34649C61.7803 7.37265 61.7697 7.39688 61.761 7.42208C61.7222 7.52674 61.6844 7.6314 61.6495 7.73703L61.6292 7.7981C61.5933 7.9076 61.5594 8.01904 61.5265 8.12951C61.5265 8.14502 61.5177 8.16052 61.5139 8.17603C61.4809 8.29232 61.4499 8.40862 61.4218 8.52491C61.4218 8.53557 61.416 8.54621 61.414 8.5559C61.384 8.67801 61.3578 8.80011 61.3336 8.92319V8.93871C61.3084 9.06566 61.2852 9.19357 61.2658 9.32149C61.2454 9.45135 61.227 9.58314 61.2125 9.70912V9.72559C61.1854 9.96399 61.1689 10.2014 61.1582 10.4408C61.1582 10.4776 61.1582 10.5154 61.1582 10.5522C61.1505 10.7838 61.1524 11.0154 61.1582 11.247C61.1582 11.2877 61.1582 11.3285 61.164 11.3692C61.1766 11.6027 61.196 11.8353 61.2251 12.0659C61.2251 12.0989 61.2348 12.1308 61.2387 12.1628C61.2716 12.4061 61.3113 12.6474 61.3627 12.8887C61.3937 13.0321 61.4276 13.1746 61.4596 13.317C61.4693 13.3509 61.4799 13.3858 61.4887 13.4197C61.5187 13.5283 61.5497 13.6368 61.5856 13.7444C61.6001 13.789 61.6146 13.8345 61.6301 13.8791C61.6612 13.976 61.6931 14.0729 61.7271 14.1698C61.7455 14.2202 61.7639 14.2667 61.7832 14.32C61.8172 14.4092 61.853 14.4983 61.8898 14.5875C61.9112 14.6388 61.9325 14.6912 61.9557 14.7425C61.9935 14.8298 62.0323 14.915 62.073 15.0003C62.0972 15.0526 62.1214 15.105 62.1466 15.1563C62.1893 15.2416 62.2338 15.3269 62.2784 15.4112C62.3046 15.4606 62.3298 15.5081 62.3569 15.5595C62.4063 15.6496 62.4596 15.7387 62.5129 15.8269C62.5371 15.8696 62.5614 15.9112 62.5866 15.9529C62.666 16.0821 62.7487 16.2113 62.8346 16.3406C62.7213 16.263 62.6079 16.1894 62.4916 16.1177C62.449 16.0905 62.4044 16.0653 62.3608 16.0392C62.2891 15.9965 62.2183 15.9529 62.1466 15.9122L61.9722 15.8153C61.9141 15.7833 61.8559 15.7514 61.7978 15.7184C61.7396 15.6855 61.6631 15.6506 61.5943 15.6215C61.5458 15.5982 61.4974 15.573 61.446 15.5508C61.3704 15.5159 61.2949 15.4819 61.2193 15.449L61.0952 15.3967C61.0113 15.3618 60.927 15.3279 60.8423 15.2949C60.8104 15.2833 60.7784 15.2707 60.7454 15.26C60.6485 15.2242 60.5584 15.1912 60.4644 15.1631L60.4034 15.1428C60.2987 15.1088 60.1931 15.0749 60.0875 15.0458C60.0245 15.0274 59.9615 15.0139 59.8985 14.9974C59.8103 14.9741 59.7231 14.9509 59.6349 14.9296C59.5099 14.8995 59.3849 14.8724 59.2599 14.8472C59.1708 14.8288 59.0816 14.8123 58.9915 14.7968C58.8665 14.7755 58.7405 14.7571 58.6145 14.7406C58.5244 14.729 58.4333 14.7173 58.3423 14.7076C58.2173 14.695 58.0923 14.6854 57.9663 14.6776C57.8694 14.6708 57.7812 14.665 57.6891 14.6621C57.5641 14.6572 57.4401 14.6573 57.3151 14.6573C57.2182 14.6573 57.1281 14.6573 57.0351 14.6573C56.911 14.6573 56.788 14.6689 56.6639 14.6776C56.567 14.6834 56.4769 14.6902 56.3829 14.6989C56.2598 14.7106 56.1377 14.727 56.0147 14.7445C55.9178 14.7571 55.8276 14.7687 55.7327 14.7842C55.6125 14.8045 55.4914 14.8297 55.3712 14.854C55.2743 14.8724 55.1842 14.8908 55.0902 14.9131C54.971 14.9412 54.8528 14.9741 54.7336 15.01C54.6416 15.0352 54.5485 15.0594 54.4555 15.0875C54.3383 15.1234 54.222 15.166 54.1057 15.2067C54.0146 15.2387 53.9226 15.2687 53.8324 15.3036C53.7162 15.3482 53.6018 15.4005 53.4884 15.4471C53.3983 15.4858 53.3092 15.5217 53.221 15.5624C53.1066 15.6157 52.9952 15.6748 52.8828 15.7329C52.7966 15.7765 52.7103 15.8173 52.626 15.8647C52.5126 15.9268 52.4022 15.9965 52.2907 16.0634C52.2093 16.1128 52.1279 16.1603 52.0485 16.2107C51.9341 16.2843 51.8237 16.3648 51.7122 16.4442C51.6376 16.4956 51.562 16.5411 51.4903 16.5993C51.3702 16.6904 51.2529 16.7931 51.1347 16.89C51.0756 16.9385 51.0136 16.9869 50.9545 17.0354C50.8091 17.1614 50.6686 17.2961 50.5291 17.4327L64.3192 31.2228C64.4287 31.0774 64.5624 30.9369 64.6884 30.7915Z" fill="url(#paint5_linear_2878_112828)"/>
<path d="M36.3164 41.7981L31.3027 36.785C31.2756 36.7569 31.2455 36.7337 31.2174 36.7056L17.4273 50.4976L2.06833 65.8575C0.743607 67.1898 0 68.9922 0 70.8711C0 72.7499 0.743607 74.5524 2.06833 75.8846L5.83782 79.6544C7.16999 80.9792 8.97233 81.7228 10.851 81.7228C12.7298 81.7228 14.5321 80.9792 15.8643 79.6544L31.2203 64.2973L45.0163 50.4995L36.3164 41.7981Z" fill="url(#paint6_linear_2878_112828)"/>
<path d="M50.5019 17.4314L35.1429 2.07043C33.8104 0.74603 32.008 0.00268555 30.1292 0.00268555C28.2505 0.00268555 26.4481 0.74603 25.1155 2.07043L21.347 5.84016C20.0223 7.17241 19.2787 8.97488 19.2787 10.8537C19.2787 12.7326 20.0223 14.535 21.347 15.8673L36.7031 31.2253L50.499 45.0221L59.1998 36.3207L64.2135 31.3067C64.2407 31.2796 64.2649 31.2495 64.292 31.2214L50.5019 17.4314Z" fill="url(#paint7_linear_2878_112828)"/>
<path d="M64.6816 59.1992L55.9808 50.4978L50.499 55.9809L64.295 69.7787L69.7806 64.2927C69.7525 64.2656 69.7225 64.2404 69.6953 64.2132L64.6816 59.1992Z" fill="url(#paint8_linear_2878_112828)"/>
<path d="M36.3096 70.2087C36.2583 70.2679 36.2127 70.3299 36.1633 70.39C36.0664 70.5062 35.9695 70.6235 35.8726 70.7437C35.8174 70.8163 35.7689 70.8919 35.7176 70.9656C35.6371 71.077 35.5567 71.1875 35.484 71.3019C35.4317 71.3823 35.3871 71.4637 35.3367 71.5451C35.2689 71.6565 35.2001 71.767 35.1371 71.8804C35.0906 71.9647 35.049 72.0519 35.0053 72.1372C34.9472 72.2496 34.8881 72.3611 34.8348 72.4754C34.7941 72.5636 34.7573 72.6537 34.7195 72.7439C34.671 72.8572 34.6226 72.9716 34.5761 73.0869C34.5412 73.177 34.5121 73.2701 34.4792 73.3612C34.4394 73.4775 34.3978 73.5928 34.3619 73.7101C34.3328 73.807 34.3086 73.8961 34.2834 73.9901C34.2514 74.1083 34.2175 74.2265 34.1865 74.3457C34.1642 74.4426 34.1468 74.5328 34.1274 74.6268C34.1022 74.747 34.079 74.8671 34.0576 74.9892C34.0421 75.0861 34.0305 75.1763 34.0179 75.2712C34.0014 75.3924 33.985 75.5145 33.9733 75.6385C33.9636 75.7354 33.9578 75.8255 33.9511 75.9195C33.9433 76.0426 33.9346 76.1676 33.9307 76.2917C33.9307 76.3886 33.9307 76.4777 33.9307 76.5707C33.9307 76.6958 33.9307 76.8198 33.9307 76.9448C33.9307 77.0418 33.9404 77.1299 33.9462 77.223C33.9549 77.348 33.9636 77.473 33.9772 77.597C33.9869 77.6891 33.9985 77.7812 34.0102 77.8732C34.0257 77.9973 34.045 78.1222 34.0664 78.2463C34.0819 78.3364 34.0993 78.4275 34.1168 78.5186C34.1419 78.6427 34.1691 78.7658 34.1981 78.8888C34.2204 78.979 34.2427 79.0681 34.2679 79.1563C34.2844 79.2183 34.297 79.2813 34.3154 79.3414C34.3464 79.449 34.3803 79.5546 34.4123 79.6612C34.4191 79.6805 34.4239 79.699 34.4307 79.7174C34.4627 79.8143 34.4966 79.9112 34.5276 80.0003C34.5392 80.0323 34.5509 80.0643 34.5635 80.0972C34.5954 80.1825 34.6303 80.2668 34.6604 80.3512C34.6778 80.3919 34.6953 80.4335 34.7137 80.4742C34.7466 80.5498 34.7805 80.6264 34.8106 80.702C34.8348 80.7514 34.8581 80.7989 34.8823 80.8512C34.9152 80.9181 34.9472 80.9849 34.9792 81.0528C35.0112 81.1206 35.0412 81.17 35.0761 81.2292C35.111 81.2883 35.1381 81.3445 35.173 81.4016C35.2147 81.4743 35.2583 81.546 35.3009 81.6168C35.3261 81.6607 35.3523 81.7043 35.3794 81.7476C35.4501 81.8629 35.5247 81.9773 35.6013 82.0897C35.4721 82.0038 35.3429 81.9211 35.2137 81.8416C35.173 81.8164 35.1304 81.7932 35.0887 81.768C34.9995 81.7156 34.9104 81.6623 34.8212 81.6129C34.7718 81.5858 34.7243 81.5596 34.671 81.5335C34.5877 81.4889 34.5024 81.4443 34.4181 81.4026L34.2611 81.328C34.1759 81.2883 34.0916 81.2485 34.0043 81.2107L33.8483 81.1448C33.7602 81.108 33.671 81.0731 33.5819 81.0392C33.5315 81.0189 33.485 81.0004 33.4317 80.983C33.3348 80.9481 33.2379 80.9161 33.141 80.8861L33.0072 80.8425C32.8977 80.8085 32.7892 80.7775 32.6797 80.7456L32.5828 80.7175C32.4404 80.6806 32.2921 80.6458 32.1516 80.6148H32.139C31.9093 80.5653 31.6787 80.5285 31.4471 80.4965L31.3124 80.4771C31.0876 80.45 30.8637 80.4306 30.6341 80.418L30.4897 80.4113C30.261 80.4025 30.0323 80.4006 29.8036 80.4113H29.6961C29.4529 80.4219 29.2116 80.4384 28.9683 80.4665C28.8395 80.482 28.7125 80.4994 28.5807 80.5188H28.5652C28.4412 80.5382 28.3181 80.5615 28.1951 80.5847L28.166 80.5905C28.0478 80.6148 27.9296 80.6399 27.8123 80.669L27.7697 80.6797C27.6553 80.7068 27.5429 80.7369 27.4305 80.7688L27.3743 80.7844C27.2658 80.8154 27.1582 80.8493 27.0516 80.8813L26.9809 80.9045C26.884 80.9394 26.7764 80.9753 26.6756 81.0131L26.5904 81.045C26.4948 81.0819 26.3979 81.1206 26.2997 81.1613L26.2028 81.2039C26.1126 81.2427 26.0216 81.2834 25.9314 81.3261L25.821 81.3793C25.7357 81.421 25.6514 81.4627 25.5681 81.5063L25.4431 81.5742C25.3646 81.6168 25.2861 81.6594 25.2085 81.704L25.0719 81.7864C24.9992 81.83 24.9266 81.8736 24.8549 81.9192L24.7076 82.0161C24.6407 82.0606 24.5738 82.1042 24.5138 82.1498C24.4537 82.1953 24.4052 82.2283 24.351 82.268C24.2967 82.3077 24.2327 82.3542 24.1736 82.3988C24.1145 82.4434 24.0554 82.4957 23.9963 82.5403C23.9372 82.5849 23.8916 82.6217 23.8413 82.6653C23.7734 82.7215 23.7066 82.7816 23.6407 82.8407C23.6 82.8766 23.5583 82.9115 23.5176 82.9483C23.411 83.0452 23.3064 83.1421 23.2036 83.2487C21.3741 85.0783 20.3462 87.5598 20.3461 90.1473C20.346 92.7348 21.3737 95.2163 23.2032 97.046C25.0326 98.8757 27.5139 99.9037 30.1013 99.9038C32.6886 99.9039 35.17 98.8761 36.9996 97.0465C37.1023 96.9438 37.2021 96.8381 37.301 96.7315C37.3378 96.6908 37.3717 96.6492 37.4095 96.6085C37.4667 96.5416 37.5267 96.4757 37.5839 96.4089C37.6411 96.342 37.6672 96.3042 37.7099 96.2519C37.7525 96.1995 37.8068 96.1356 37.8494 96.0755C37.8921 96.0154 37.9386 95.9563 37.9831 95.8952C38.0277 95.8342 38.0607 95.7896 38.0985 95.7373C38.1362 95.685 38.1895 95.6026 38.2341 95.5348C38.2661 95.4863 38.299 95.4378 38.331 95.3904C38.3775 95.3167 38.4221 95.2431 38.4667 95.1694L38.5452 95.0366C38.5917 94.9581 38.6353 94.8777 38.6789 94.7973C38.7002 94.7575 38.7225 94.7178 38.7429 94.6781C38.7884 94.5918 38.831 94.5056 38.8727 94.4193C38.8892 94.3844 38.9076 94.3505 38.9241 94.3157C38.9677 94.2187 39.0084 94.1305 39.0491 94.0375C39.0626 94.0075 39.0752 93.9774 39.0878 93.9464C39.1295 93.8495 39.1692 93.7526 39.207 93.6508C39.2167 93.6247 39.2264 93.6005 39.2361 93.5753C39.2748 93.4706 39.3117 93.3659 39.3475 93.2603C39.3543 93.24 39.3601 93.2196 39.3669 93.1993C39.4037 93.0888 39.4376 92.9793 39.4696 92.8678C39.4696 92.8523 39.4793 92.8368 39.4832 92.8213C39.5161 92.705 39.5471 92.5887 39.5801 92.4725C39.5801 92.4618 39.5801 92.4511 39.5878 92.4405C39.6169 92.3193 39.644 92.1972 39.6683 92.0742V92.0596C39.6935 91.9307 39.7167 91.8038 39.7371 91.672C39.7574 91.5402 39.7758 91.4094 39.7904 91.2776V91.2611C39.8175 91.0246 39.834 90.7853 39.8437 90.5469C39.8437 90.5101 39.8437 90.4722 39.8437 90.4364C39.8514 90.2048 39.8495 89.9722 39.8437 89.7416C39.8437 89.6999 39.8437 89.6592 39.8369 89.6185C39.8253 89.3859 39.8049 89.1524 39.7768 88.9217C39.7768 88.8888 39.7671 88.8568 39.7632 88.8248C39.7293 88.5816 39.6896 88.3403 39.6382 88.099C39.6072 87.9556 39.5733 87.8131 39.5355 87.6706C39.5268 87.6357 39.5161 87.6019 39.5074 87.5679C39.4774 87.4594 39.4464 87.3509 39.4105 87.2433C39.3969 87.1987 39.3824 87.1532 39.3669 87.1086C39.3349 87.0117 39.303 86.9148 39.27 86.8178C39.2516 86.7684 39.2322 86.7209 39.2128 86.6686C39.1789 86.5794 39.144 86.4893 39.1072 86.4012C39.0859 86.3488 39.0646 86.2974 39.0413 86.2451C39.0035 86.1598 38.9638 86.0736 38.9241 85.9883C38.8998 85.936 38.8756 85.8836 38.8504 85.8332C38.8078 85.747 38.7632 85.6627 38.7196 85.5774C38.6925 85.528 38.6673 85.4805 38.6401 85.4301C38.5898 85.339 38.5374 85.2508 38.4841 85.1607C38.4599 85.12 38.4357 85.0774 38.4114 85.0357C38.331 84.9068 38.2487 84.7779 38.1634 84.6481C38.2758 84.7246 38.3892 84.7993 38.5054 84.871C38.5491 84.8981 38.5927 84.9233 38.6363 84.9495C38.708 84.9931 38.7787 85.0347 38.8504 85.0764L39.0239 85.1733L39.1993 85.2702L39.4018 85.3671L39.55 85.4379C39.6256 85.4727 39.7022 85.5067 39.7778 85.5396L39.9018 85.592C39.9861 85.6269 40.0704 85.6617 40.1547 85.6889L40.2516 85.7237C40.3485 85.7586 40.4386 85.7926 40.5326 85.8207L40.5947 85.842C40.6993 85.8759 40.804 85.9098 40.9096 85.9389C40.9726 85.9573 41.0365 85.9699 41.1034 85.9874C41.1906 86.0106 41.2788 86.0338 41.367 86.0552C41.491 86.0852 41.616 86.1114 41.741 86.1375C41.8311 86.155 41.9203 86.1724 42.0104 86.1879C42.1354 86.2093 42.2604 86.2277 42.3864 86.2442C42.4775 86.2568 42.5685 86.2674 42.6596 86.2771C42.7846 86.2897 42.9096 86.2994 43.0356 86.3071C43.1277 86.3139 43.2207 86.3198 43.3128 86.3227C43.4378 86.3227 43.5618 86.3275 43.6858 86.3275C43.7827 86.3275 43.8728 86.3275 43.9668 86.3275C44.0899 86.3275 44.2139 86.3159 44.338 86.3071L44.619 86.2868C44.7421 86.2742 44.8642 86.2577 44.9863 86.2412C45.0832 86.2277 45.1742 86.216 45.2682 86.2005C45.3894 86.1802 45.5095 86.156 45.6306 86.1317C45.7275 86.1114 45.8177 86.0939 45.9107 86.0726C46.0309 86.0436 46.1491 86.0106 46.2673 85.9757C46.3642 85.9505 46.4533 85.9253 46.5454 85.8982C46.6627 85.8613 46.7799 85.8197 46.8962 85.779C46.9873 85.747 47.0793 85.7169 47.1694 85.6821C47.2848 85.6375 47.3991 85.5852 47.5135 85.5386C47.6026 85.5008 47.6927 85.464 47.7799 85.4233C47.8943 85.37 48.0057 85.3109 48.1191 85.2537C48.2044 85.2092 48.2906 85.1675 48.3759 85.121C48.4893 85.058 48.5997 84.9892 48.7112 84.9214C48.7916 84.8729 48.874 84.8244 48.9534 84.775C49.0678 84.7014 49.1782 84.6209 49.2897 84.5424C49.3633 84.4891 49.4389 84.4455 49.5116 84.3864C49.6317 84.2953 49.749 84.1974 49.8662 84.1005C49.9263 84.0511 49.9883 84.0036 50.0474 83.9542C50.1928 83.8273 50.3382 83.6935 50.4728 83.5569L36.6817 69.7659C36.5703 69.9219 36.4356 70.0624 36.3096 70.2087Z" fill="url(#paint9_linear_2878_112828)"/>
<path d="M79.6481 85.1365L64.2921 69.7805L50.4961 55.9827L41.7953 64.6841L36.7816 69.6981C36.7545 69.7252 36.7303 69.7543 36.7021 69.7824L50.4932 83.5734L65.8541 98.9314C67.1865 100.256 68.989 101 70.8679 101C72.7467 101 74.5492 100.256 75.8816 98.9314L79.6511 95.1627C80.9749 93.8299 81.7176 92.0276 81.717 90.149C81.7165 88.2705 80.9727 86.4685 79.6481 85.1365Z" fill="url(#paint10_linear_2878_112828)"/>
<path d="M98.9316 25.1156L95.1621 21.3459C93.8298 20.0213 92.0275 19.2778 90.1489 19.2778C88.2702 19.2778 86.4679 20.0213 85.1356 21.3459L69.7796 36.703L55.9827 50.4998L64.6835 59.2012L69.6972 64.2152C69.7243 64.2423 69.7544 64.2675 69.7825 64.2947L83.5726 50.5037L98.9316 35.1437C100.256 33.8113 101 32.0087 101 30.1297C101 28.2507 100.256 26.448 98.9316 25.1156Z" fill="url(#paint11_linear_2878_112828)"/>
<defs>
<linearGradient id="paint0_linear_2878_112828" x1="43.599" y1="62.9482" x2="38.113" y2="57.4626" gradientUnits="userSpaceOnUse">
<stop stop-color="#6BB3D4"/>
<stop offset="0.19" stop-color="#68AFD2"/>
<stop offset="0.38" stop-color="#5FA4CC"/>
<stop offset="0.55" stop-color="#5091C3"/>
<stop offset="0.73" stop-color="#3A76B5"/>
<stop offset="0.9" stop-color="#1F54A4"/>
<stop offset="1" stop-color="#0C3D98"/>
</linearGradient>
<linearGradient id="paint1_linear_2878_112828" x1="24.2764" y1="43.6917" x2="3.9053" y2="23.322" gradientUnits="userSpaceOnUse">
<stop stop-color="#6BB3D4"/>
<stop offset="0.09" stop-color="#6BB3D4"/>
<stop offset="1" stop-color="#6BB3D4"/>
</linearGradient>
<linearGradient id="paint2_linear_2878_112828" x1="57.426" y1="38.1337" x2="62.911" y2="43.6184" gradientUnits="userSpaceOnUse">
<stop stop-color="#6BB3D4"/>
<stop offset="0.19" stop-color="#68AFD2"/>
<stop offset="0.38" stop-color="#5FA4CC"/>
<stop offset="0.55" stop-color="#5091C3"/>
<stop offset="0.73" stop-color="#3A76B5"/>
<stop offset="0.9" stop-color="#1F54A4"/>
<stop offset="1" stop-color="#0C3D98"/>
</linearGradient>
<linearGradient id="paint3_linear_2878_112828" x1="76.5685" y1="57.4924" x2="96.9396" y2="77.8621" gradientUnits="userSpaceOnUse">
<stop stop-color="#6BB3D4"/>
<stop offset="0.09" stop-color="#6BB3D4"/>
<stop offset="1" stop-color="#6BB3D4"/>
</linearGradient>
<linearGradient id="paint4_linear_2878_112828" x1="38.1382" y1="43.5729" x2="43.6242" y2="38.0872" gradientUnits="userSpaceOnUse">
<stop stop-color="#CD2B92"/>
<stop offset="0.22" stop-color="#C92991"/>
<stop offset="0.44" stop-color="#BD238E"/>
<stop offset="0.66" stop-color="#A81989"/>
<stop offset="0.88" stop-color="#8C0A82"/>
<stop offset="1" stop-color="#79017D"/>
</linearGradient>
<linearGradient id="paint5_linear_2878_112828" x1="57.3142" y1="24.4556" x2="77.6853" y2="4.08588" gradientUnits="userSpaceOnUse">
<stop stop-color="#CD2B92"/>
<stop offset="0.18" stop-color="#CD2B92"/>
<stop offset="0.42" stop-color="#CD2B92"/>
<stop offset="1" stop-color="#CD2B92"/>
</linearGradient>
<linearGradient id="paint6_linear_2878_112828" x1="38.1917" y1="43.4224" x2="4.02378" y2="77.5881" gradientUnits="userSpaceOnUse">
<stop stop-color="#CD2B92"/>
<stop offset="0.17" stop-color="#E33196"/>
<stop offset="0.32" stop-color="#F33699"/>
<stop offset="1" stop-color="#F33699"/>
</linearGradient>
<linearGradient id="paint7_linear_2878_112828" x1="57.4665" y1="37.943" x2="23.2986" y2="3.77735" gradientUnits="userSpaceOnUse">
<stop stop-color="#6BB3D4"/>
<stop offset="0.09" stop-color="#6BB3D4"/>
<stop offset="0.11" stop-color="#6AB6D5"/>
<stop offset="0.22" stop-color="#68C2DB"/>
<stop offset="0.32" stop-color="#67C6DD"/>
<stop offset="1" stop-color="#67C6DD"/>
</linearGradient>
<linearGradient id="paint8_linear_2878_112828" x1="62.8574" y1="57.3954" x2="57.3714" y2="62.881" gradientUnits="userSpaceOnUse">
<stop stop-color="#CD2B92"/>
<stop offset="0.22" stop-color="#C92991"/>
<stop offset="0.44" stop-color="#BD238E"/>
<stop offset="0.66" stop-color="#A81989"/>
<stop offset="0.88" stop-color="#8C0A82"/>
<stop offset="1" stop-color="#79017D"/>
</linearGradient>
<linearGradient id="paint9_linear_2878_112828" x1="43.5105" y1="76.7151" x2="23.1394" y2="97.0849" gradientUnits="userSpaceOnUse">
<stop stop-color="#CD2B92"/>
<stop offset="0.13" stop-color="#CD2B92"/>
<stop offset="0.49" stop-color="#CD2B92"/>
<stop offset="1" stop-color="#CD2B92"/>
</linearGradient>
<linearGradient id="paint10_linear_2878_112828" x1="43.6105" y1="62.7082" x2="77.7784" y2="96.8739" gradientUnits="userSpaceOnUse">
<stop stop-color="#6BB3D4"/>
<stop offset="0.09" stop-color="#6BB3D4"/>
<stop offset="0.11" stop-color="#6AB6D5"/>
<stop offset="0.22" stop-color="#68C2DB"/>
<stop offset="0.32" stop-color="#67C6DD"/>
<stop offset="1" stop-color="#67C6DD"/>
</linearGradient>
<linearGradient id="paint11_linear_2878_112828" x1="62.9502" y1="57.1953" x2="97.1181" y2="23.0295" gradientUnits="userSpaceOnUse">
<stop stop-color="#CD2B92"/>
<stop offset="0.17" stop-color="#E33196"/>
<stop offset="0.32" stop-color="#F33699"/>
<stop offset="1" stop-color="#F33699"/>
</linearGradient>
</defs>
</svg>
