<svg width="50" height="50" viewBox="0 0 50 50" fill="none" xmlns="http://www.w3.org/2000/svg">
<rect width="50" height="50" rx="10" fill="#5F63F2"/>
<path d="M40.2277 21.5613H15.2939C14.5051 21.5635 13.7476 21.2545 13.1882 20.7024C12.6287 20.1502 12.313 19.4 12.3105 18.6168C12.3179 18.361 12.3529 18.1068 12.4148 17.8584C12.4274 17.7958 12.4517 17.7362 12.4866 17.6826C12.5502 17.45 12.6519 17.2294 12.7878 17.0297V17.0121C12.9371 16.7943 13.1167 16.5985 13.3213 16.4307L13.3745 16.3769C13.5772 16.2039 13.8043 16.0613 14.0487 15.9537C14.2422 15.8638 14.4448 15.7945 14.653 15.7468V12.4144C14.4446 12.432 14.2446 12.4671 14.0487 12.5023C13.9601 12.5199 13.8892 12.5551 13.8007 12.5727C13.4994 12.6422 13.2028 12.7306 12.9128 12.8375C12.7907 12.895 12.672 12.9596 12.5575 13.031C12.3295 13.1315 12.1096 13.2495 11.9 13.3838C11.776 13.4541 11.652 13.5607 11.5269 13.6486C11.3431 13.7744 11.1709 13.916 11.0122 14.0718C10.8882 14.1753 10.7809 14.3004 10.6569 14.4246C10.5115 14.5814 10.3751 14.7461 10.2484 14.9181C10.1439 15.0461 10.0491 15.1817 9.96493 15.3237C9.84376 15.5092 9.73684 15.7036 9.64504 15.9051C9.57418 16.0469 9.50228 16.1876 9.43663 16.3283C9.34806 16.5579 9.29492 16.8042 9.22823 17.0525C9.18354 17.179 9.14871 17.3087 9.12402 17.4405C9.04681 17.8298 9.00529 18.2252 9 18.622V35.5491C9.00055 37.209 9.66495 38.8008 10.8471 39.9745C12.0293 41.1483 13.6325 41.8079 15.3043 41.8084H40.2381C40.6776 41.8044 41.0977 41.6281 41.407 41.3181C41.7163 41.0081 41.8898 40.5894 41.8898 40.1531V23.2187C41.8903 22.7802 41.7156 22.3594 41.404 22.0487C41.0924 21.7379 40.6694 21.5626 40.2277 21.5613ZM38.5605 35.2087H31.013C30.5414 35.2167 30.073 35.1315 29.635 34.9578C29.197 34.7842 28.7982 34.5257 28.4619 34.1975C28.1256 33.8692 27.8585 33.4778 27.6761 33.0459C27.4938 32.6141 27.3999 32.1505 27.3999 31.6823C27.3999 31.214 27.4938 30.7505 27.6761 30.3186C27.8585 29.8868 28.1256 29.4953 28.4619 29.1671C28.7982 28.8388 29.197 28.5803 29.635 28.4067C30.073 28.2331 30.5414 28.1478 31.013 28.1558H38.5605V35.2087Z" fill="white"/>
<path d="M29.1998 31.6796C29.1996 32.0532 29.311 32.4184 29.5199 32.729C29.7288 33.0397 30.0258 33.2818 30.3733 33.4249C30.7209 33.5679 31.1033 33.6054 31.4723 33.5326C31.8413 33.4598 32.1802 33.2799 32.4463 33.0158C32.7123 32.7517 32.8934 32.4151 32.9668 32.0488C33.0401 31.6824 33.0024 31.3027 32.8583 30.9576C32.7142 30.6126 32.4703 30.3177 32.1574 30.1103C31.8445 29.9029 31.4767 29.7923 31.1005 29.7925C30.5965 29.7928 30.1132 29.9917 29.7568 30.3455C29.4004 30.6994 29.2001 31.1792 29.1998 31.6796V31.6796Z" fill="white"/>
<path d="M38.4656 11.7635H24.2596C24.2071 11.7629 24.1551 11.7728 24.1066 11.7924C24.058 11.8121 24.0139 11.8412 23.9768 11.878C23.9398 11.9148 23.9105 11.9586 23.8907 12.0068C23.8709 12.055 23.8609 12.1066 23.8615 12.1587V19.2188H26.4614V16.3219C26.9599 16.2549 27.4226 16.0273 27.7783 15.6741C28.1341 15.3209 28.3633 14.8615 28.4308 14.3665H34.2756C34.3412 14.8592 34.5673 15.317 34.9196 15.6701C35.2718 16.0232 35.7307 16.2521 36.2263 16.3219V19.2188H38.8637V12.1587C38.8621 12.0544 38.8196 11.9548 38.7453 11.881C38.671 11.8072 38.5707 11.7651 38.4656 11.7635V11.7635Z" fill="white"/>
<path d="M32.0112 9.60108V7.39635C32.0088 7.28896 31.9635 7.18693 31.8853 7.11264C31.8072 7.03835 31.7026 6.99787 31.5944 7.00009H17.4071C17.3546 6.99953 17.3025 7.00942 17.2538 7.02915C17.2052 7.04888 17.1611 7.07806 17.124 7.11498C17.0869 7.1519 17.0576 7.1958 17.0379 7.24412C17.0181 7.29245 17.0083 7.34421 17.009 7.39635V19.2187H19.6089V11.5379C20.1051 11.4728 20.5662 11.2482 20.9219 10.8985C21.2775 10.5488 21.508 10.0931 21.5783 9.60108H32.0112V9.60108Z" fill="white"/>
</svg>
