<svg width="11" height="11" viewBox="0 0 11 11" fill="none" xmlns="http://www.w3.org/2000/svg">
<circle cx="5.5" cy="5.5" r="5.5" fill="#FF0000"/>
<path d="M6.06836 1.46875L5.99219 7.5918H5.01367L4.93164 1.46875H6.06836ZM4.89648 9.45508C4.89648 9.2793 4.94922 9.13086 5.05469 9.00977C5.16406 8.88867 5.32422 8.82812 5.53516 8.82812C5.74219 8.82812 5.90039 8.88867 6.00977 9.00977C6.12305 9.13086 6.17969 9.2793 6.17969 9.45508C6.17969 9.62305 6.12305 9.76758 6.00977 9.88867C5.90039 10.0098 5.74219 10.0703 5.53516 10.0703C5.32422 10.0703 5.16406 10.0098 5.05469 9.88867C4.94922 9.76758 4.89648 9.62305 4.89648 9.45508Z" fill="white"/>
</svg>
