<svg width="50" height="50" viewBox="0 0 50 50" fill="none" xmlns="http://www.w3.org/2000/svg">
<rect width="50" height="50" rx="10" fill="#5F63F2"/>
<g clip-path="url(#clip0_3270_92044)">
<path d="M34.8975 12.1461H15.104C14.5813 12.1461 14.1586 12.5332 14.1586 13.0105C14.1586 13.4878 14.5813 13.8749 15.104 13.8749H34.8975C35.4202 13.8749 35.8429 13.4878 35.8429 13.0105C35.8429 12.5332 35.4202 12.1461 34.8975 12.1461Z" fill="white"/>
<path d="M34.8975 16.1588H15.104C14.5813 16.1588 14.1586 16.5459 14.1586 17.0232C14.1586 17.5005 14.5813 17.8876 15.104 17.8876H34.8975C35.4202 17.8876 35.8429 17.5005 35.8429 17.0232C35.8429 16.5459 35.4202 16.1588 34.8975 16.1588Z" fill="white"/>
<path d="M25.4257 21.9004C25.9469 21.9004 26.3711 21.5132 26.3711 21.0375C26.3711 20.5618 25.9469 20.1715 25.4257 20.1715H15.104C14.5813 20.1715 14.1586 20.5586 14.1586 21.0375C14.1586 21.5163 14.5813 21.9004 15.104 21.9004H25.4257Z" fill="white"/>
<path d="M38.1927 6.99999H11.8088C11.44 6.99999 11.0747 7.07455 10.7339 7.21941C10.3931 7.36426 10.0835 7.57658 9.82268 7.84424C9.56185 8.1119 9.35496 8.42966 9.2138 8.77937C9.07264 9.12908 8.99999 9.5039 8.99999 9.88243V38.1175C8.99999 38.882 9.29592 39.6152 9.82268 40.1557C10.3494 40.6963 11.0639 41 11.8088 41H38.1927C38.9376 41 39.6521 40.6963 40.1788 40.1557C40.7056 39.6152 41.0015 38.882 41.0015 38.1175V9.88243C41.0015 9.5039 40.9289 9.12908 40.7877 8.77937C40.6465 8.42966 40.4396 8.1119 40.1788 7.84424C39.918 7.57658 39.6084 7.36426 39.2676 7.21941C38.9268 7.07455 38.5615 6.99999 38.1927 6.99999V6.99999ZM38.4048 37.4117C38.4044 37.6487 38.3125 37.8758 38.1492 38.0434C37.9859 38.2109 37.7646 38.3053 37.5337 38.3057H12.4678C12.2369 38.3053 12.0156 38.2109 11.8523 38.0434C11.689 37.8758 11.5971 37.6487 11.5967 37.4117V10.5914C11.5971 10.3544 11.689 10.1273 11.8523 9.9597C12.0156 9.79214 12.2369 9.69783 12.4678 9.69742H37.5337C37.7646 9.69783 37.9859 9.79214 38.1492 9.9597C38.3125 10.1273 38.4044 10.3544 38.4048 10.5914V37.4117Z" fill="white"/>
<path d="M24.3092 25.8478H20.3777V35.2787H24.3092V25.8478Z" fill="white"/>
<path d="M19.2339 30.117H15.3024V35.2787H19.2339V30.117Z" fill="white"/>
<path d="M29.3844 27.8798H25.453V35.2787H29.3844V27.8798Z" fill="white"/>
<path d="M34.4597 24.6569H30.5283V35.2802H34.4597V24.6569Z" fill="white"/>
</g>
<defs>
<clipPath id="clip0_3270_92044">
<rect width="32" height="34" fill="white" transform="translate(9 7)"/>
</clipPath>
</defs>
</svg>
